<?xml version="1.0" encoding="UTF-8"?>
<svg version="1.1" xmlns="http://www.w3.org/2000/svg" width="500" height="500">
<path d="M0 0 C0.66 0 1.32 0 2 0 C4.56593035 13.41703341 0.42934617 25.85598075 -7 37 C-7.66 37 -8.32 37 -9 37 C-9 37.66 -9 38.32 -9 39 C-13.58536702 42.87317172 -18.53828346 45.8806843 -24.0625 48.1875 C-39.468562 55.67320411 -44.80688854 78.13091726 -50.1796875 93 C-52.0807339 98.25228994 -54.06545036 103.47108495 -56.0625 108.6875 C-58.2105054 114.30006338 -60.34857587 119.91525756 -62.43896484 125.54956055 C-63.61232888 128.70493775 -64.80554485 131.85254204 -66 135 C-66.40734375 136.08925781 -66.8146875 137.17851562 -67.234375 138.30078125 C-70.89126318 147.64484292 -75.63084991 156.16105808 -84 162 C-84.66 162 -85.32 162 -86 162 C-86 162.66 -86 163.32 -86 164 C-88.06049855 164.81756238 -90.12348853 165.62884734 -92.1875 166.4375 C-93.33605469 166.88996094 -94.48460937 167.34242188 -95.66796875 167.80859375 C-105.96371279 171.48995592 -114.67277884 169.93565678 -125 167 C-125 166.01 -125 165.02 -125 164 C-123.700625 163.814375 -122.40125 163.62875 -121.0625 163.4375 C-115.39823363 162.19675594 -110.9637954 159.20743294 -107 155 C-107 151.35045101 -107.78180418 150.74490409 -110 147.9375 C-115.29682776 140.56661317 -118.53445336 132.33774374 -122 124 C-122.37979004 123.08976074 -122.75958008 122.17952148 -123.15087891 121.24169922 C-127.59611502 110.5558588 -131.89377981 99.82079408 -136 89 C-141.11587777 75.57702082 -141.11587777 75.57702082 -146.89453125 62.4296875 C-147.9891385 60.02387227 -148.93934459 57.59639363 -149.875 55.125 C-154.66274283 43.1461056 -159.9568698 33.61735252 -171.375 27.0625 C-176.21841779 25.64287754 -180.97446395 25.26354529 -186 25 C-185 22 -185 22 -183.14453125 20.8671875 C-170.18516901 15.35348899 -158.00601106 15.97192202 -144.88671875 20.7734375 C-137.79532071 23.87148314 -132.4017253 29.5982747 -127 35 C-127 35.99 -127 36.98 -127 38 C-126.34 38 -125.68 38 -125 38 C-120.24939133 47.85088144 -115.7761858 57.70850496 -111.81689453 67.90722656 C-110.21522776 72.01048048 -108.57377495 76.09795368 -106.9375 80.1875 C-106.59348145 81.04859375 -106.24946289 81.9096875 -105.89501953 82.796875 C-103.72008263 88.2316044 -101.49888668 93.64422483 -99.2265625 99.0390625 C-98.2647802 101.36081722 -97.32434691 103.68734729 -96.3984375 106.0234375 C-96.12467285 106.71397217 -95.8509082 107.40450684 -95.56884766 108.1159668 C-95.03232201 109.47327749 -94.49805723 110.83148456 -93.96630859 112.19067383 C-92.87739961 115.33225988 -92.87739961 115.33225988 -91 118 C-90.30582035 115.46000627 -89.61854392 112.91853293 -88.9375 110.375 C-88.71707031 109.55193359 -88.49664062 108.72886719 -88.26953125 107.88085938 C-86.83338863 102.42430652 -85.51951037 96.95115424 -84.28515625 91.4453125 C-84.06387306 90.46430069 -84.06387306 90.46430069 -83.83811951 89.46347046 C-83.10293981 86.20284776 -82.37954575 82.94092392 -81.67553711 79.67333984 C-79.07347936 68.08436882 -74.86196051 58.65906465 -68 49 C-67.34 48.01 -66.68 47.02 -66 46 C-65.34 46 -64.68 46 -64 46 C-64 45.34 -64 44.68 -64 44 C-62.05224829 42.44059445 -60.12285024 41.02164562 -58.0625 39.625 C-57.46783936 39.21942871 -56.87317871 38.81385742 -56.26049805 38.39599609 C-49.36952316 33.78836058 -42.5428587 31.11645947 -34.60546875 28.83984375 C-27.25165777 26.46942492 -20.41909851 22.82135084 -13.77734375 18.91796875 C-12 18 -12 18 -10 18 C-10 17.34 -10 16.68 -10 16 C-9.34 16 -8.68 16 -8 16 C-8 15.34 -8 14.68 -8 14 C-7.34 14 -6.68 14 -6 14 C-6 13.34 -6 12.68 -6 12 C-5.34 12 -4.68 12 -4 12 C-3.86722656 11.42765625 -3.73445312 10.8553125 -3.59765625 10.265625 C-3.00619683 8.02349125 -2.26711146 5.91420381 -1.4375 3.75 C-1.03337891 2.69039062 -1.03337891 2.69039062 -0.62109375 1.609375 C-0.31365234 0.81273437 -0.31365234 0.81273437 0 0 Z " fill="#01BAFB" transform="translate(351,135)"/>
<path d="M0 0 C2.3125 3 2.3125 3 4 6 C6.10039331 7.38868516 6.10039331 7.38868516 8 8 C8 8.66 8 9.32 8 10 C8.99 10 9.98 10 11 10 C14.90150479 16.54445964 14.90150479 16.54445964 15.5 19.3125 C15.665 19.869375 15.83 20.42625 16 21 C16.639375 21.28875 17.27875 21.5775 17.9375 21.875 C20 23 20 23 21.125 25.5 C22.24305971 29.97223884 23.15815285 34.46835469 24 39 C24.66 38.67 25.32 38.34 26 38 C26 40.64 26 43.28 26 46 C27.32 46 28.64 46 30 46 C30.2475 46.86625 30.495 47.7325 30.75 48.625 C31.83907768 52.05737923 31.83907768 52.05737923 34.0625 54.75 C36.65251584 59.09454271 36.80326635 63.02263861 37 68 C37.66 68 38.32 68 39 68 C39.53364887 70.05922133 40.05142189 72.12256107 40.5625 74.1875 C40.85253906 75.33605469 41.14257812 76.48460937 41.44140625 77.66796875 C41.98068761 80.88480093 41.88247476 82.89672783 41 86 C42.65 85.67 44.3 85.34 46 85 C46.33 86.32 46.66 87.64 47 89 C47.66 89 48.32 89 49 89 C49 90.32 49 91.64 49 93 C50.485 93.495 50.485 93.495 52 94 C52.72904086 95.64034193 53.38655243 97.31301918 54 99 C54.556875 99.763125 55.11375 100.52625 55.6875 101.3125 C58.00025102 106.04813304 56.37622591 111.22597296 54.73046875 116.03515625 C54.22526444 117.38106229 53.71087089 118.72355363 53.1875 120.0625 C52.93935547 120.73087891 52.69121094 121.39925781 52.43554688 122.08789062 C50.68464401 126.67231568 48.52296401 130.79141145 46 135 C35.37257635 130.56420578 31.10730139 114.88173871 27 105 C26.62020996 104.08976074 26.24041992 103.17952148 25.84912109 102.24169922 C21.40388498 91.5558588 17.10622019 80.82079408 13 70 C7.88412223 56.57702082 7.88412223 56.57702082 2.10546875 43.4296875 C1.0108615 41.02387227 0.06065541 38.59639363 -0.875 36.125 C-5.66274283 24.1461056 -10.9568698 14.61735252 -22.375 8.0625 C-27.21841779 6.64287754 -31.97446395 6.26354529 -37 6 C-36 3 -36 3 -34.14453125 1.8671875 C-24.08658116 -2.41207435 -10.41426311 -4.75192389 0 0 Z " fill="#033FF4" transform="translate(202,154)"/>
<path d="M0 0 C-0.56847656 0.680625 -1.13695312 1.36125 -1.72265625 2.0625 C-11.28417229 14.06627306 -16.01018432 27.6935331 -21.1796875 42 C-23.0807339 47.25228994 -25.06545036 52.47108495 -27.0625 57.6875 C-29.2105054 63.30006338 -31.34857587 68.91525756 -33.43896484 74.54956055 C-34.61232888 77.70493775 -35.80554485 80.85254204 -37 84 C-37.40734375 85.08925781 -37.8146875 86.17851562 -38.234375 87.30078125 C-41.89126318 96.64484292 -46.63084991 105.16105808 -55 111 C-55.66 111 -56.32 111 -57 111 C-57 111.66 -57 112.32 -57 113 C-59.06049855 113.81756238 -61.12348853 114.62884734 -63.1875 115.4375 C-64.33605469 115.88996094 -65.48460937 116.34242188 -66.66796875 116.80859375 C-76.96371279 120.48995592 -85.67277884 118.93565678 -96 116 C-96 115.01 -96 114.02 -96 113 C-94.700625 112.814375 -93.40125 112.62875 -92.0625 112.4375 C-86.9739374 111.34249286 -83.76651464 108.88305739 -79.84765625 105.55859375 C-78 104 -78 104 -76 103 C-76 103.66 -76 104.32 -76 105 C-74.68 105 -73.36 105 -72 105 C-68.81287807 101.71629862 -66.96331746 98.09735818 -65 94 C-64.46375 93.21625 -63.9275 92.4325 -63.375 91.625 C-61.81545731 88.64769122 -61.56666013 86.37764271 -61.40625 83.0625 C-61 81 -61 81 -59.484375 78.62890625 C-57.69827116 75.46562234 -57.73245425 73.54753827 -57.75 69.9375 C-56.66038097 49.55521454 -45.80134516 28.76586011 -31 15 C-9.49527721 -3.1650924 -9.49527721 -3.1650924 0 0 Z " fill="#008CF9" transform="translate(322,186)"/>
<path d="M0 0 C-0.56847656 0.680625 -1.13695312 1.36125 -1.72265625 2.0625 C-13.48782507 16.83279541 -19.18001381 35.22774948 -25 53 C-25.33 53 -25.66 53 -26 53 C-25.67 50.03 -25.34 47.06 -25 44 C-24.34 44 -23.68 44 -23 44 C-23 41.69 -23 39.38 -23 37 C-24.65 39.31 -26.3 41.62 -28 44 C-29 42 -29 42 -28.5 40.125 C-27.92789652 37.6935602 -28.36705 36.37356251 -29 34 C-28.67 33.34 -28.34 32.68 -28 32 C-28.53109375 32.433125 -29.0621875 32.86625 -29.609375 33.3125 C-30.31578125 33.869375 -31.0221875 34.42625 -31.75 35 C-32.44609375 35.556875 -33.1421875 36.11375 -33.859375 36.6875 C-36 38 -36 38 -40 38 C-40 37.34 -40 36.68 -40 36 C-40.66 36 -41.32 36 -42 36 C-42.0825 36.94875 -42.165 37.8975 -42.25 38.875 C-43 42 -43 42 -45.0625 43.375 C-45.701875 43.58125 -46.34125 43.7875 -47 44 C-48.45190486 37.92678822 -47.13644403 35.22843271 -44.05859375 30.00390625 C-34.66932869 16.30306216 -20.63020564 4.68917948 -4.80859375 -0.75390625 C-3 -1 -3 -1 0 0 Z " fill="#0249D5" transform="translate(322,186)"/>
<path d="M0 0 C6.57320682 1.42419481 10.62542093 3.97255558 15.5 8.4375 C16.02819336 8.91614502 16.55638672 9.39479004 17.10058594 9.88793945 C19.7370951 12.3964167 21.64811191 14.27878347 22 18 C22.66 18 23.32 18 24 18 C28.75060867 27.85088144 33.2238142 37.70850496 37.18310547 47.90722656 C38.78477224 52.01048048 40.42622505 56.09795368 42.0625 60.1875 C42.57852783 61.47914063 42.57852783 61.47914063 43.10498047 62.796875 C45.28080588 68.23382461 47.50571817 73.64754326 49.7734375 79.046875 C51.2938949 82.70759409 52.77603343 86.38285717 54.25 90.0625 C54.50861816 90.70678955 54.76723633 91.3510791 55.03369141 92.01489258 C56.09029322 94.66062633 57.09882013 97.29646039 58 100 C57.34 100.99 56.68 101.98 56 103 C53.65105557 99.66601435 51.8839688 96.97785959 51 93 C50.01 92.505 50.01 92.505 49 92 C49 90.68 49 89.36 49 88 C48.34 88 47.68 88 47 88 C46.34 87.01 45.68 86.02 45 85 C43.68 85 42.36 85 41 85 C40.069785 79.02004643 39.51241107 73.02900687 39 67 C38.34 67 37.68 67 37 67 C36.90203125 66.34773438 36.8040625 65.69546875 36.703125 65.0234375 C35.73600364 59.37077988 34.66795318 55.44600385 31 51 C30.01 50.34 29.02 49.68 28 49 C28 47.68 28 46.36 28 45 C27.34 45 26.68 45 26 45 C25.67 42.69 25.34 40.38 25 38 C24.01 38.495 24.01 38.495 23 39 C22.49453964 36.91798472 21.99583165 34.83432933 21.5 32.75 C21.2215625 31.58984375 20.943125 30.4296875 20.65625 29.234375 C20 26 20 26 20 22 C19.38125 21.9175 18.7625 21.835 18.125 21.75 C16 21 16 21 14.875 19.25 C14.58625 18.5075 14.2975 17.765 14 17 C13.649375 16.154375 13.29875 15.30875 12.9375 14.4375 C12.24677939 12.6416264 11.60846174 10.82538523 11 9 C10.01 9 9.02 9 8 9 C7.67 8.34 7.34 7.68 7 7 C6.38125 6.731875 5.7625 6.46375 5.125 6.1875 C2.35873868 4.64164808 1.45344564 2.76154672 0 0 Z " fill="#316AF8" transform="translate(202,155)"/>
<path d="M0 0 C1.4540625 0.0309375 1.4540625 0.0309375 2.9375 0.0625 C4.2620002 2.71150039 4.06462018 4.70749458 4.06689453 7.67382812 C4.07004669 8.84844604 4.07319885 10.02306396 4.07644653 11.23327637 C4.0744223 12.50723267 4.07239807 13.78118896 4.0703125 15.09375 C4.07126923 16.39574341 4.07222595 17.69773682 4.07321167 19.03918457 C4.07468694 21.79648014 4.07253958 24.55374334 4.06787109 27.31103516 C4.06217389 30.84869209 4.06545381 34.38627316 4.07144356 37.92392731 C4.07592194 41.29304099 4.07278818 44.66213416 4.0703125 48.03125 C4.07233673 49.3052063 4.07436096 50.5791626 4.07644653 51.89172363 C4.07329437 53.06634155 4.07014221 54.24095947 4.06689453 55.45117188 C4.06609894 56.4888269 4.06530334 57.52648193 4.06448364 58.59558105 C3.9375 61.0625 3.9375 61.0625 2.9375 63.0625 C0.93795254 63.10504356 -1.06291636 63.10330783 -3.0625 63.0625 C-4.82973811 61.29526189 -4.19012833 58.7593116 -4.19189453 56.36523438 C-4.19504669 55.14727173 -4.19819885 53.92930908 -4.20144653 52.67443848 C-4.19965675 51.33504195 -4.1976058 49.99564576 -4.1953125 48.65625 C-4.1959856 47.2924396 -4.19695567 45.92862932 -4.19821167 44.56481934 C-4.19968838 41.70319479 -4.19753497 38.8416014 -4.19287109 35.97998047 C-4.18717381 32.30431386 -4.19045296 28.62872026 -4.19644356 24.95305634 C-4.20004991 22.13587896 -4.19891025 19.31871902 -4.19631577 16.50154114 C-4.1956467 15.14589937 -4.19647421 13.79025604 -4.19879532 12.43461609 C-4.20132301 10.54299956 -4.19679014 8.65137751 -4.19189453 6.75976562 C-4.19109894 5.68134399 -4.19030334 4.60292236 -4.18948364 3.49182129 C-3.99934385 -0.14573894 -3.714726 0.07581073 0 0 Z " fill="#08DBF7" transform="translate(177.0625,198.9375)"/>
<path d="M0 0 C2.26950631 -0.16780084 3.93391021 -0.06585514 6.11328125 0.59375 C8.67578125 3.09375 8.67578125 3.09375 10.11328125 6.59375 C9.74788871 12.38522182 8.40352876 17.27676444 6.30078125 22.65625 C6.05263672 23.32462891 5.80449219 23.99300781 5.54882812 24.68164062 C3.79792526 29.26606568 1.63624526 33.38516145 -0.88671875 37.59375 C-4.68050933 36.10333227 -6.57015633 33.90312488 -8.88671875 30.59375 C-8.88671875 29.93375 -8.88671875 29.27375 -8.88671875 28.59375 C-8.22671875 28.26375 -7.56671875 27.93375 -6.88671875 27.59375 C-7.25925781 26.70171875 -7.63179687 25.8096875 -8.015625 24.890625 C-8.72525391 23.13492187 -8.72525391 23.13492187 -9.44921875 21.34375 C-9.92488281 20.18359375 -10.40054688 19.0234375 -10.890625 17.828125 C-12.23513174 13.46243253 -12.23513174 13.46243253 -10.88671875 10.59375 C-9.2288309 9.24951661 -7.56095558 7.91756517 -5.88671875 6.59375 C-5.28859375 5.52125 -4.69046875 4.44875 -4.07421875 3.34375 C-1.88671875 0.59375 -1.88671875 0.59375 0 0 Z " fill="#0026B4" transform="translate(248.88671875,251.40625)"/>
<path d="M0 0 C0.495 1.485 0.495 1.485 1 3 C-1.19219451 5.19219451 -2.61644364 5.70972967 -5.5 6.75 C-24.68384271 14.23031853 -38.7636407 28.29460854 -47 47 C-51.30607718 57.24592458 -54.78889907 66.9340172 -54.734375 78.15234375 C-55.04606634 81.49385824 -56.21461638 83.20228546 -58 86 C-58.45161348 88.06382129 -58.45161348 88.06382129 -58.5 90.0625 C-59.01891917 94.14898846 -59.47056915 95.00215603 -62 98 C-62.64615405 99.28121533 -63.26886022 100.57437617 -63.875 101.875 C-65.77193093 105.80120588 -68.08877 108.7653 -71 112 C-71.33 111.34 -71.66 110.68 -72 110 C-72.66 110 -73.32 110 -74 110 C-74 109.34 -74 108.68 -74 108 C-73.34 108 -72.68 108 -72 108 C-71.6596875 106.8553125 -71.6596875 106.8553125 -71.3125 105.6875 C-70.20309413 102.5705978 -68.95809622 99.68046538 -67.5625 96.6875 C-64.76371494 90.59456969 -62.17977125 84.65677731 -61.5 77.9375 C-61.04980199 74.39219067 -60.17089404 71.64394888 -58.82421875 68.359375 C-57.3826672 64.23284828 -56.61536909 59.93777673 -55.74609375 55.66015625 C-55.49988281 54.78230469 -55.25367188 53.90445313 -55 53 C-54.01 52.505 -54.01 52.505 -53 52 C-52.40494001 49.95475679 -52.04533219 47.90666043 -51.66015625 45.8125 C-51.44230469 45.214375 -51.22445313 44.61625 -51 44 C-49.515 43.505 -49.515 43.505 -48 43 C-46.44675997 40.3886992 -46.44675997 40.3886992 -45.0625 37.25 C-43.11242925 33.0274468 -41.15822509 29.44533647 -38 26 C-37.34 26 -36.68 26 -36 26 C-35.94585937 25.42378906 -35.89171875 24.84757812 -35.8359375 24.25390625 C-34.61512113 20.96226584 -32.49385507 19.89148397 -29.625 17.9375 C-26.48511304 15.7793455 -23.64327719 13.73881733 -21 11 C-19.33720673 9.9935725 -17.67016516 8.99414593 -16 8 C-14.948125 7.0409375 -14.948125 7.0409375 -13.875 6.0625 C-9.64101702 3.02507743 -4.92027562 1.61998567 0 0 Z " fill="#08C2FC" transform="translate(320,181)"/>
<path d="M0 0 C0.99 0 1.98 0 3 0 C1.63707709 6.82156822 -0.32806922 13.17188342 -2.75 19.6875 C-3.28451782 21.13334473 -3.28451782 21.13334473 -3.82983398 22.60839844 C-4.87437496 25.41040245 -5.93249587 28.20667162 -7 31 C-7.27924316 31.73105957 -7.55848633 32.46211914 -7.84619141 33.21533203 C-11.87254454 43.58748424 -16.66335571 53.48606212 -26 60 C-26.66 60 -27.32 60 -28 60 C-28 60.66 -28 61.32 -28 62 C-31.3 62.66 -34.6 63.32 -38 64 C-38.33 62.35 -38.66 60.7 -39 59 C-36.46551233 55.67348493 -34.477645 54.18237355 -30.5625 52.6875 C-25.82640774 50.44408787 -23.80266054 47.30377594 -21 43 C-20.34 42.01 -19.68 41.02 -19 40 C-18.34 40 -17.68 40 -17 40 C-16.7525 39.34 -16.505 38.68 -16.25 38 C-15.25781835 35.61876404 -14.18953354 33.4064188 -13 31.125 C-11.15969934 27.51255797 -10.05528644 23.91963533 -9 20 C-8.37530495 18.64649406 -7.7283669 17.30065517 -7 16 C-6.34 16 -5.68 16 -5 16 C-4.855625 15.05125 -4.71125 14.1025 -4.5625 13.125 C-4 10 -4 10 -3 8 C-2.34 8 -1.68 8 -1 8 C-1.020625 6.865625 -1.04125 5.73125 -1.0625 4.5625 C-1 1 -1 1 0 0 Z " fill="#04DDFB" transform="translate(293,237)"/>
<path d="M0 0 C-0.58007812 0.71542969 -1.16015625 1.43085938 -1.7578125 2.16796875 C-7.45250216 9.43198708 -11.46973172 16.41660262 -15 25 C-15.33 25 -15.66 25 -16 25 C-16 22.66666667 -16 20.33333333 -16 18 C-16.969375 18.433125 -17.93875 18.86625 -18.9375 19.3125 C-23.20304583 21.14808325 -27.57977593 22.58673108 -32 24 C-32 24.66 -32 25.32 -32 26 C-35.96 26.495 -35.96 26.495 -40 27 C-35.77515328 14.67034529 -21.35611665 7.18555012 -10.375 1.5 C-4 -1.33333333 -4 -1.33333333 0 0 Z " fill="#013B8F" transform="translate(322,186)"/>
<path d="M0 0 C4.34280133 3.86026784 6.66933266 7.70498158 9 13 C9.4125 13.928125 9.825 14.85625 10.25 15.8125 C11 18 11 18 11 21 C11.66 21 12.32 21 13 21 C13.6496875 22.8253125 13.6496875 22.8253125 14.3125 24.6875 C15.24158734 27.18990033 16.13991319 29.22386111 17.5625 31.5 C19.17712855 34.30804966 19.76307545 36.8226601 20.46875 39.95703125 C21.29016181 43.11584284 22.6967961 46.01349106 24 49 C24.350625 50.258125 24.70125 51.51625 25.0625 52.8125 C25.7414531 56.06068786 25.7414531 56.06068786 28 58 C29.3492671 60.92341206 30 62.75207316 30 66 C30.66 66 31.32 66 32 66 C32.25394531 66.83402344 32.50789063 67.66804688 32.76953125 68.52734375 C34.5816355 74.45231381 36.41282875 80.35531509 38.484375 86.1953125 C39 88 39 88 39 91 C39.66 91 40.32 91 41 91 C41.18175781 91.66386719 41.36351562 92.32773437 41.55078125 93.01171875 C42.90696267 97.77574066 44.26039451 101.82536306 47 106 C47 106.66 47 107.32 47 108 C44 107 44 107 42.5625 104.5703125 C42.046875 103.43335938 41.53125 102.29640625 41 101.125 C40.70947754 100.4851416 40.41895508 99.8452832 40.11962891 99.18603516 C33.20085309 83.69745219 27.04619052 67.84509989 21 52 C15.88078191 38.58613077 15.88078191 38.58613077 10.11328125 25.44140625 C8.9855999 22.96842082 7.98291986 20.47116194 7 17.9375 C5.27177146 13.50360218 3.1901475 9.32669245 0.953125 5.12890625 C0 3 0 3 0 0 Z " fill="#5BB6E1" transform="translate(194,172)"/>
<path d="M0 0 C0 0.33 0 0.66 0 1 C-1.98 1 -3.96 1 -6 1 C-6 1.99 -6 2.98 -6 4 C-5.195625 4.2475 -4.39125 4.495 -3.5625 4.75 C-1 6 -1 6 -0.0625 7.8125 C0.0172568 10.60398817 -0.81801941 12.49698229 -2 15 C-3.65 15 -5.3 15 -7 15 C-7.33 13.68 -7.66 12.36 -8 11 C-8.60328125 10.86722656 -9.2065625 10.73445312 -9.828125 10.59765625 C-10.62734375 10.42105469 -11.4265625 10.24445313 -12.25 10.0625 C-13.43335938 9.80146484 -13.43335938 9.80146484 -14.640625 9.53515625 C-16.09468678 9.20534422 -17.54604229 8.86295409 -18.9921875 8.5 C-24.97014506 7.01132574 -30.80423064 5.67390688 -37 6 C-36 3 -36 3 -34.14453125 1.8671875 C-22.84442902 -2.94056119 -11.84884014 -3.1596907 0 0 Z " fill="#012BB7" transform="translate(202,154)"/>
<path d="M0 0 C0.495 1.485 0.495 1.485 1 3 C0.21625 3.2475 -0.5675 3.495 -1.375 3.75 C-4.14245872 4.70574696 -4.14245872 4.70574696 -4.8125 7 C-6 9 -6 9 -9.8125 10 C-10.52792969 10.15082031 -11.24335938 10.30164063 -11.98046875 10.45703125 C-17.71760582 11.99951104 -21.39447775 17.58912055 -25 22 C-23.68 22.33 -22.36 22.66 -21 23 C-21.66 23.33 -22.32 23.66 -23 24 C-23.75877483 25.78383667 -24.43519749 27.60329607 -25.0625 29.4375 C-27.5782044 36.71880294 -27.5782044 36.71880294 -31 39 C-31.99 39 -32.98 39 -34 39 C-36.43046191 45.32837252 -37.59060025 51.23784552 -38 58 C-38.66 58 -39.32 58 -40 58 C-40.12375 59.299375 -40.2475 60.59875 -40.375 61.9375 C-40.5859375 64.15234375 -40.5859375 64.15234375 -41 66 C-41.99 66.495 -41.99 66.495 -43 67 C-41.29863035 48.76575569 -36.66994465 32.01927692 -26 17 C-25.34 16.01 -24.68 15.02 -24 14 C-23.34 14 -22.68 14 -22 14 C-22 13.34 -22 12.68 -22 12 C-19.98905359 10.42764279 -17.98842532 8.98446769 -15.875 7.5625 C-15.30523437 7.16740234 -14.73546875 6.77230469 -14.1484375 6.36523438 C-4.82829399 0 -4.82829399 0 0 0 Z " fill="#025AF6" transform="translate(309,167)"/>
<path d="M0 0 C0.66 0 1.32 0 2 0 C4.56593035 13.41703341 0.42934617 25.85598075 -7 37 C-7.66 37 -8.32 37 -9 37 C-9 37.66 -9 38.32 -9 39 C-11.1875 40.7265625 -11.1875 40.7265625 -14 42.625 C-14.928125 43.25664062 -15.85625 43.88828125 -16.8125 44.5390625 C-17.534375 45.02117187 -18.25625 45.50328125 -19 46 C-19.66 45.34 -20.32 44.68 -21 44 C-21 43.01 -21 42.02 -21 41 C-20.01 41 -19.02 41 -18 41 C-17.67 40.34 -17.34 39.68 -17 39 C-14.4375 38.375 -14.4375 38.375 -12 38 C-12.495 36.515 -12.495 36.515 -13 35 C-12.21625 34.855625 -11.4325 34.71125 -10.625 34.5625 C-7.84843237 33.28463143 -7.84843237 33.28463143 -7.22265625 30.86328125 C-6.73164391 28.58025309 -6.31887599 26.31304073 -6 24 C-6.99 24.33 -7.98 24.66 -9 25 C-9 24.34 -9 23.68 -9 23 C-10.32 23.33 -11.64 23.66 -13 24 C-13 23.34 -13 22.68 -13 22 C-14.65 22.33 -16.3 22.66 -18 23 C-15.64722731 20.27573689 -13.37503669 19.1858237 -10 18 C-10 17.34 -10 16.68 -10 16 C-9.34 16 -8.68 16 -8 16 C-8 15.34 -8 14.68 -8 14 C-7.34 14 -6.68 14 -6 14 C-6 13.34 -6 12.68 -6 12 C-5.34 12 -4.68 12 -4 12 C-3.86722656 11.42765625 -3.73445313 10.8553125 -3.59765625 10.265625 C-3.00619683 8.02349125 -2.26711146 5.91420381 -1.4375 3.75 C-1.16808594 3.04359375 -0.89867187 2.3371875 -0.62109375 1.609375 C-0.41613281 1.07828125 -0.21117187 0.5471875 0 0 Z " fill="#08EFF8" transform="translate(351,135)"/>
<path d="M0 0 C1.1446875 0.3403125 1.1446875 0.3403125 2.3125 0.6875 C4.07770838 5.98312514 3.49714038 11.64555596 3.5 17.1875 C3.51224609 18.43660156 3.52449219 19.68570313 3.53710938 20.97265625 C3.54000977 22.76509766 3.54000977 22.76509766 3.54296875 24.59375 C3.54707764 25.69009766 3.55118652 26.78644531 3.55541992 27.91601562 C3.3125 30.6875 3.3125 30.6875 1.3125 33.6875 C-1.1875 34.0625 -1.1875 34.0625 -3.6875 33.6875 C-7.06674189 28.61863716 -6.01478923 22.63868586 -6 16.6875 C-6.01611328 15.39070312 -6.03222656 14.09390625 -6.04882812 12.7578125 C-6.04947266 11.51773438 -6.05011719 10.27765625 -6.05078125 9 C-6.05376221 7.86175781 -6.05674316 6.72351563 -6.05981445 5.55078125 C-5.6875 2.6875 -5.6875 2.6875 -4.33276367 0.7734375 C-2.6875 -0.3125 -2.6875 -0.3125 0 0 Z " fill="#0FC6EF" transform="translate(191.6875,214.3125)"/>
<path d="M0 0 C1.9375 0.8125 1.9375 0.8125 3.9375 2.8125 C4.39911313 7.25301317 4.26147558 11.725794 4.25 16.1875 C4.26611328 17.43273437 4.28222656 18.67796875 4.29882812 19.9609375 C4.29947266 21.1571875 4.30011719 22.3534375 4.30078125 23.5859375 C4.30376221 24.68341309 4.30674316 25.78088867 4.30981445 26.91162109 C3.89982215 30.10606603 3.08723118 31.46843681 0.9375 33.8125 C-1.5 33.4375 -1.5 33.4375 -4.0625 32.8125 C-6.34856619 28.24036761 -5.29266856 21.89483247 -5.3125 16.875 C-5.3434375 14.92303711 -5.3434375 14.92303711 -5.375 12.93164062 C-5.38015625 11.68705078 -5.3853125 10.44246094 -5.390625 9.16015625 C-5.3999707 8.01554932 -5.40931641 6.87094238 -5.41894531 5.69165039 C-5.0625 2.8125 -5.0625 2.8125 -3.67089844 0.90405273 C-2.0625 -0.1875 -2.0625 -0.1875 0 0 Z " fill="#01B5FB" transform="translate(164.0625,214.1875)"/>
<path d="M0 0 C0.99 0.33 1.98 0.66 3 1 C3 1.66 3 2.32 3 3 C3.66 3 4.32 3 5 3 C9.75060867 12.85088144 14.2238142 22.70850496 18.18310547 32.90722656 C19.78477197 37.01047978 21.42615914 41.09798067 23.0625 45.1875 C23.40289307 46.03916748 23.74328613 46.89083496 24.09399414 47.76831055 C28.25750295 58.51287343 28.25750295 58.51287343 33 69 C33.04022391 71.3329866 33.04320247 73.66706666 33 76 C32.34 76 31.68 76 31 76 C29.82061866 73.22002969 28.8845128 70.55454937 28.125 67.625 C27.10479949 64.33768725 25.7720164 61.80054562 24.00390625 58.87109375 C22.54801498 56.15758435 21.70057956 53.32393351 20.77734375 50.39453125 C18.77162372 44.21610725 16.35594359 38.40809467 13.00390625 32.84765625 C11.35047138 29.80456405 10.1829686 26.57571836 8.94140625 23.34765625 C7.97599828 20.82915043 7.97599828 20.82915043 6.375 17.875 C5.19225335 15.40198427 4.58448875 13.45228115 4 10.8125 C3.02859428 7.1090157 2.63269184 6.39335621 0 4 C0 2.68 0 1.36 0 0 Z " fill="#90ACDC" transform="translate(221,170)"/>
<path d="M0 0 C3.08642187 0.6063831 5.15350879 1.58510295 7.6875 3.4375 C8.28949219 3.86933594 8.89148438 4.30117187 9.51171875 4.74609375 C11 6 11 6 12 8 C12.63421875 8.12632812 13.2684375 8.25265625 13.921875 8.3828125 C16 9 16 9 17.265625 10.7421875 C17.75289062 11.79792969 17.75289062 11.79792969 18.25 12.875 C18.58515625 13.57367188 18.9203125 14.27234375 19.265625 14.9921875 C20 17 20 17 20 20 C21.32 20.66 22.64 21.32 24 22 C24 23.65 24 25.3 24 27 C24.66 27 25.32 27 26 27 C26.5775 28.175625 27.155 29.35125 27.75 30.5625 C29.1066524 33.30960042 30.55451579 35.90995544 32.1875 38.5 C33.92137578 41.84817392 34.25209555 43.99341162 34.51953125 47.6796875 C35.397967 51.92188939 37.66666829 55.58510102 39.72265625 59.36328125 C41 62 41 62 41 65 C41.99 65.495 41.99 65.495 43 66 C43 68.66666667 43 71.33333333 43 74 C40.20294175 72.60147088 40.09085007 70.86348142 39 68 C38.34 67.01 37.68 66.02 37 65 C36.16197059 62.21774236 35.47877809 59.41418965 34.78125 56.59375 C34.07712317 53.80025967 34.07712317 53.80025967 32 51 C31.566875 49.4221875 31.566875 49.4221875 31.125 47.8125 C30.04513776 44.15296684 28.65075158 41.20262418 26.8046875 37.89453125 C26 36 26 36 26 32 C25.34 32 24.68 32 24 32 C23.62875 30.906875 23.2575 29.81375 22.875 28.6875 C20.82129594 23.16134945 17.90531607 18.11486065 15 13 C14.01 13 13.02 13 12 13 C10.3515625 11.35546875 10.3515625 11.35546875 8.625 9.1875 C5.98470814 6.00905948 3.65400705 3.99309475 0 2 C0 1.34 0 0.68 0 0 Z " fill="#0562F4" transform="translate(181,161)"/>
<path d="M0 0 C0 0.99 0 1.98 0 3 C-1.64453125 4.2109375 -1.64453125 4.2109375 -3.8125 5.375 C-7.46564732 7.51186726 -8.9466949 9.26671801 -11 13 C-16.02739726 18 -16.02739726 18 -19 18 C-19.33 19.32 -19.66 20.64 -20 22 C-20.66 22 -21.32 22 -22 22 C-22.27972656 22.56847656 -22.55945313 23.13695312 -22.84765625 23.72265625 C-25.64630141 29.25353804 -28.63951881 34.79125416 -32 40 C-32.33 40 -32.66 40 -33 40 C-33.52775859 32.97787882 -33.12936516 26.93126996 -29 21 C-25.75 18.9375 -25.75 18.9375 -23 18 C-23 17.34 -23 16.68 -23 16 C-21.68 15.67 -20.36 15.34 -19 15 C-18.95875 14.071875 -18.9175 13.14375 -18.875 12.1875 C-18 9 -18 9 -15.5 7.375 C-13.7675 6.694375 -13.7675 6.694375 -12 6 C-10.43429211 5.31983729 -8.8719085 4.63198372 -7.3125 3.9375 C-6.56613281 3.61652344 -5.81976563 3.29554688 -5.05078125 2.96484375 C-2.77054307 1.95370765 -2.77054307 1.95370765 0 0 Z " fill="#0263F8" transform="translate(304,185)"/>
<path d="M0 0 C3.625 0.375 3.625 0.375 7 1 C6.28571429 9.57142857 6.28571429 9.57142857 3 13 C3 10.66666667 3 8.33333333 3 6 C2.030625 6.433125 1.06125 6.86625 0.0625 7.3125 C-4.20304583 9.14808325 -8.57977593 10.58673108 -13 12 C-13 12.66 -13 13.32 -13 14 C-15.64 14.33 -18.28 14.66 -21 15 C-19.6145759 10.76090342 -17.67287988 8.29341975 -14.5 5.1875 C-13.7059375 4.39730469 -12.911875 3.60710937 -12.09375 2.79296875 C-10 1 -10 1 -8 1 C-8 1.99 -8 2.98 -8 4 C-3.58477891 2.73025028 -3.58477891 2.73025028 0 0 Z " fill="#0136A1" transform="translate(303,198)"/>
<path d="M0 0 C0.33 0.66 0.66 1.32 1 2 C1.66 2 2.32 2 3 2 C2.67 2.99 2.34 3.98 2 5 C1.01 5.33 0.02 5.66 -1 6 C-0.01 6.33 0.98 6.66 2 7 C1.47731534 9.76276177 0.89130413 12.3260876 0 15 C0.66 15.33 1.32 15.66 2 16 C-5.47394574 16.37369729 -11.82140651 15.04061541 -19 13 C-19 12.01 -19 11.02 -19 10 C-17.0509375 9.7215625 -17.0509375 9.7215625 -15.0625 9.4375 C-8.92029598 8.11366522 -4.38387009 4.38387009 0 0 Z " fill="#0572D5" transform="translate(245,289)"/>
<path d="M0 0 C0.33 0 0.66 0 1 0 C0.67 2.97 0.34 5.94 0 9 C-0.66 9 -1.32 9 -2 9 C-2.33 11.31 -2.66 13.62 -3 16 C-3.99 16.33 -4.98 16.66 -6 17 C-6.33 19.31 -6.66 21.62 -7 24 C-7.66 24 -8.32 24 -9 24 C-9.66 26.64 -10.32 29.28 -11 32 C-11.66 32 -12.32 32 -13 32 C-14.13616521 34.6781037 -15.05672318 37.23161963 -15.75 40.0625 C-17.30763018 45.63782708 -19.81945147 51.17591443 -23 56 C-25.1953125 56.8515625 -25.1953125 56.8515625 -27 57 C-26.1875 55.0625 -26.1875 55.0625 -25 53 C-23.515 52.505 -23.515 52.505 -22 52 C-20.9977668 49.41330492 -20.9977668 49.41330492 -20.375 46.3125 C-20.13523437 45.27738281 -19.89546875 44.24226563 -19.6484375 43.17578125 C-19.21174929 41.03706129 -18.81924666 38.88889856 -18.46875 36.734375 C-18.006465 34.0377125 -17.36268298 32.34684292 -16 30 C-15.54625 29.21625 -15.0925 28.4325 -14.625 27.625 C-13.50881024 25.82192423 -12.33837065 24.05166459 -11.125 22.3125 C-7.21049449 16.2104767 -4.19114817 9.91054424 -2 3 C-1.34 2.01 -0.68 1.02 0 0 Z " fill="#04A2FA" transform="translate(299,221)"/>
<path d="M0 0 C0.99 0 1.98 0 3 0 C1.63150423 6.87055056 -0.36912318 13.25306081 -2.8125 19.8125 C-3.16634766 20.77430176 -3.52019531 21.73610352 -3.88476562 22.72705078 C-6.41676022 29.56089957 -9.07097174 36.32519521 -12 43 C-14.84428933 34.46713201 -11.49506971 25.25277833 -7.8125 17.5 C-7.544375 17.005 -7.27625 16.51 -7 16 C-6.34 16 -5.68 16 -5 16 C-4.7834375 14.576875 -4.7834375 14.576875 -4.5625 13.125 C-4 10 -4 10 -3 8 C-2.34 8 -1.68 8 -1 8 C-1.020625 6.865625 -1.04125 5.73125 -1.0625 4.5625 C-1 1 -1 1 0 0 Z " fill="#02C6F9" transform="translate(293,237)"/>
<path d="M0 0 C1.4540625 0.0309375 1.4540625 0.0309375 2.9375 0.0625 C4.2620002 2.71150039 4.06462018 4.70749458 4.06689453 7.67382812 C4.07004669 8.84844604 4.07319885 10.02306396 4.07644653 11.23327637 C4.0744223 12.50723267 4.07239807 13.78118896 4.0703125 15.09375 C4.07126923 16.39574341 4.07222595 17.69773682 4.07321167 19.03918457 C4.07468694 21.79648014 4.07253958 24.55374334 4.06787109 27.31103516 C4.06217389 30.84869209 4.06545381 34.38627316 4.07144356 37.92392731 C4.07592194 41.29304099 4.07278818 44.66213416 4.0703125 48.03125 C4.07233673 49.3052063 4.07436096 50.5791626 4.07644653 51.89172363 C4.07329437 53.06634155 4.07014221 54.24095947 4.06689453 55.45117188 C4.06609894 56.4888269 4.06530334 57.52648193 4.06448364 58.59558105 C3.9375 61.0625 3.9375 61.0625 2.9375 63.0625 C0.93795254 63.10504356 -1.06291636 63.10330783 -3.0625 63.0625 C-4.82973811 61.29526189 -4.19012833 58.7593116 -4.19189453 56.36523438 C-4.19504669 55.14727173 -4.19819885 53.92930908 -4.20144653 52.67443848 C-4.19965675 51.33504195 -4.1976058 49.99564576 -4.1953125 48.65625 C-4.1959856 47.2924396 -4.19695567 45.92862932 -4.19821167 44.56481934 C-4.19968838 41.70319479 -4.19753497 38.8416014 -4.19287109 35.97998047 C-4.18717381 32.30431386 -4.19045296 28.62872026 -4.19644356 24.95305634 C-4.20004991 22.13587896 -4.19891025 19.31871902 -4.19631577 16.50154114 C-4.1956467 15.14589937 -4.19647421 13.79025604 -4.19879532 12.43461609 C-4.20132301 10.54299956 -4.19679014 8.65137751 -4.19189453 6.75976562 C-4.19109894 5.68134399 -4.19030334 4.60292236 -4.18948364 3.49182129 C-3.99934385 -0.14573894 -3.714726 0.07581073 0 0 Z M-3.0625 2.0625 C-3.0625 21.2025 -3.0625 40.3425 -3.0625 60.0625 C-1.4125 60.0625 0.2375 60.0625 1.9375 60.0625 C2.95531528 57.00905415 3.05847241 54.95966208 3.05102539 51.76489258 C3.05094986 50.68399857 3.05087433 49.60310455 3.05079651 48.48945618 C3.04563522 47.32375595 3.04047394 46.15805573 3.03515625 44.95703125 C3.0337413 43.76268967 3.03232635 42.56834808 3.03086853 41.33781433 C3.0252635 37.51685092 3.01271011 33.69594575 3 29.875 C2.99498565 27.28711022 2.99042263 24.69921952 2.98632812 22.11132812 C2.97529243 15.76169882 2.95854936 9.41210357 2.9375 3.0625 C-0.0325 2.5675 -0.0325 2.5675 -3.0625 2.0625 Z " fill="#2EABCA" transform="translate(177.0625,198.9375)"/>
<path d="M0 0 C3.25455756 1.54163253 4.73875333 2.32383216 6.0625 5.75 C6.371875 6.8225 6.68125 7.895 7 9 C8.01074738 10.73722207 9.02182251 12.47430512 10.046875 14.203125 C12.26398791 18.38292804 13 22.31891685 13 27 C13.66 27 14.32 27 15 27 C15.33 25.68 15.66 24.36 16 23 C16.64690922 24.6037331 17.29248764 26.20800306 17.9375 27.8125 C18.29714844 28.70582031 18.65679687 29.59914062 19.02734375 30.51953125 C19.73613486 32.3270909 20.3860247 34.15807409 21 36 C20.34 36.99 19.68 37.98 19 39 C16.65105557 35.66601435 14.8839688 32.97785959 14 29 C13.34 28.67 12.68 28.34 12 28 C12 26.68 12 25.36 12 24 C11.34 24 10.68 24 10 24 C9.34 23.01 8.68 22.02 8 21 C6.68 21 5.36 21 4 21 C3.069785 15.02004643 2.51241107 9.02900687 2 3 C1.34 3 0.68 3 0 3 C0 2.01 0 1.02 0 0 Z " fill="#144DF7" transform="translate(239,219)"/>
<path d="M0 0 C0.66 0 1.32 0 2 0 C1.51226766 6.70130877 0.12290788 12.12267485 -2.4375 18.3125 C-2.75009766 19.09689453 -3.06269531 19.88128906 -3.38476562 20.68945312 C-4.802656 24.21769196 -6.2961952 27.59239039 -8 31 C-7.505 26.545 -7.505 26.545 -7 22 C-6.34 22 -5.68 22 -5 22 C-5 19.69 -5 17.38 -5 15 C-7.475 18.465 -7.475 18.465 -10 22 C-11 20 -11 20 -10.5 18.125 C-9.92789652 15.6935602 -10.36705 14.37356251 -11 12 C-10.67 11.34 -10.34 10.68 -10 10 C-9.34 10 -8.68 10 -8 10 C-8 9.01 -8 8.02 -8 7 C-6.34928604 5.97388051 -4.68029994 4.97691857 -3 4 C-1.98199424 2.68036291 -0.97751635 1.34990354 0 0 Z " fill="#0178F3" transform="translate(304,208)"/>
<path d="M0 0 C0.66 0.33 1.32 0.66 2 1 C2 1.99 2 2.98 2 4 C2.66 4 3.32 4 4 4 C4.25394531 4.83402344 4.50789062 5.66804687 4.76953125 6.52734375 C6.5816355 12.45231381 8.41282875 18.35531509 10.484375 24.1953125 C11 26 11 26 11 29 C11.66 29 12.32 29 13 29 C13.18175781 29.66386719 13.36351562 30.32773437 13.55078125 31.01171875 C14.90696267 35.77574066 16.26039451 39.82536306 19 44 C19 44.66 19 45.32 19 46 C16 45 16 45 14.5625 42.5703125 C10.80769491 34.29096728 7.24070744 25.93827104 3.765625 17.53729248 C3.00355004 15.69607709 2.23616137 13.857064 1.46875 12.01806641 C1.0046875 10.88159668 0.540625 9.74512695 0.0625 8.57421875 C-0.35902344 7.54901123 -0.78054687 6.52380371 -1.21484375 5.4675293 C-2 3 -2 3 -1 1 C-0.67 0.67 -0.34 0.34 0 0 Z " fill="#3BAAE1" transform="translate(222,234)"/>
<path d="M0 0 C0.495 1.485 0.495 1.485 1 3 C-1.19219451 5.19219451 -2.61644364 5.70972967 -5.5 6.75 C-19.22811648 12.10297779 -29.47210905 20.98148764 -39 32 C-39.66 32.66 -40.32 33.32 -41 34 C-41 29.77471908 -40.74375671 28.95481492 -38 26 C-37.34 26 -36.68 26 -36 26 C-35.94585937 25.42378906 -35.89171875 24.84757812 -35.8359375 24.25390625 C-34.61512113 20.96226584 -32.49385507 19.89148397 -29.625 17.9375 C-26.48511304 15.7793455 -23.64327719 13.73881733 -21 11 C-19.33720673 9.9935725 -17.67016516 8.99414593 -16 8 C-15.29875 7.360625 -14.5975 6.72125 -13.875 6.0625 C-9.64101702 3.02507743 -4.92027562 1.61998567 0 0 Z " fill="#17CDF8" transform="translate(320,181)"/>
<path d="M0 0 C0.99 0.33 1.98 0.66 3 1 C3 1.66 3 2.32 3 3 C3.66 3 4.32 3 5 3 C17 27.84466019 17 27.84466019 17 34 C15.16015625 33.85546875 15.16015625 33.85546875 13 33 C11.62109375 30.48828125 11.62109375 30.48828125 10.4375 27.3125 C9.16820162 24.01466034 7.94229534 20.88886509 6.3125 17.75 C5.16057085 15.33643415 4.57403102 13.39330615 4 10.8125 C3.02859428 7.1090157 2.63269184 6.39335621 0 4 C0 2.68 0 1.36 0 0 Z " fill="#97B2DC" transform="translate(221,170)"/>
<path d="M0 0 C0.33 0 0.66 0 1 0 C1 2.64 1 5.28 1 8 C1.99 8 2.98 8 4 8 C4 5.36 4 2.72 4 0 C4.33 0 4.66 0 5 0 C5.02900455 3.6041498 5.04680018 7.20826962 5.0625 10.8125 C5.07087891 11.83666016 5.07925781 12.86082031 5.08789062 13.91601562 C5.09111328 14.89892578 5.09433594 15.88183594 5.09765625 16.89453125 C5.10289307 17.80050049 5.10812988 18.70646973 5.11352539 19.63989258 C5 22 5 22 4 25 C2.35 25 0.7 25 -1 25 C-1.02908357 21.58335127 -1.04682691 18.1667345 -1.0625 14.75 C-1.07087891 13.78191406 -1.07925781 12.81382812 -1.08789062 11.81640625 C-1.09111328 10.88183594 -1.09433594 9.94726562 -1.09765625 8.984375 C-1.10289307 8.12553711 -1.10812988 7.26669922 -1.11352539 6.38183594 C-1.00539986 4.11329256 -0.63582423 2.17368285 0 0 Z " fill="#077EF2" transform="translate(175,234)"/>
<path d="M0 0 C1.1446875 0.3403125 1.1446875 0.3403125 2.3125 0.6875 C4.07770838 5.98312514 3.49714038 11.64555596 3.5 17.1875 C3.51224609 18.43660156 3.52449219 19.68570313 3.53710938 20.97265625 C3.54000977 22.76509766 3.54000977 22.76509766 3.54296875 24.59375 C3.54707764 25.69009766 3.55118652 26.78644531 3.55541992 27.91601562 C3.3125 30.6875 3.3125 30.6875 1.3125 33.6875 C-1.3125 33.875 -1.3125 33.875 -3.6875 33.6875 C-1.7075 33.1925 -1.7075 33.1925 0.3125 32.6875 C0.3125 23.1175 0.3125 13.5475 0.3125 3.6875 C-1.3375 3.6875 -2.9875 3.6875 -4.6875 3.6875 C-4.6875 12.5975 -4.6875 21.5075 -4.6875 30.6875 C-5.0175 30.6875 -5.3475 30.6875 -5.6875 30.6875 C-5.76171454 26.75489056 -5.81613136 22.82255278 -5.85229492 18.8894043 C-5.87478333 16.89422299 -5.91290198 14.89923787 -5.95117188 12.90429688 C-5.96083984 11.65068359 -5.97050781 10.39707031 -5.98046875 9.10546875 C-5.9961792 7.94813232 -6.01188965 6.7907959 -6.02807617 5.59838867 C-5.6875 2.6875 -5.6875 2.6875 -4.3371582 0.7668457 C-2.6875 -0.3125 -2.6875 -0.3125 0 0 Z " fill="#1083A5" transform="translate(191.6875,214.3125)"/>
<path d="M0 0 C0.33 0.99 0.66 1.98 1 3 C0.21625 3.2475 -0.5675 3.495 -1.375 3.75 C-4.14245872 4.70574696 -4.14245872 4.70574696 -4.8125 7 C-5.204375 7.66 -5.59625 8.32 -6 9 C-7.85131518 9.40392331 -9.70390602 9.80288943 -11.5625 10.171875 C-16.62909029 11.89321657 -23.55658122 16.11316244 -26 21 C-26.66 21 -27.32 21 -28 21 C-26.79618552 18.50638429 -25.54571278 16.31856917 -24 14 C-23.34 14 -22.68 14 -22 14 C-22 13.34 -22 12.68 -22 12 C-19.98905359 10.42764279 -17.98842532 8.98446769 -15.875 7.5625 C-15.30523437 7.16740234 -14.73546875 6.77230469 -14.1484375 6.36523438 C-4.82829399 0 -4.82829399 0 0 0 Z " fill="#0E76C8" transform="translate(309,167)"/>
<path d="M0 0 C1.66561399 1.66561399 1.17115945 3.65962705 1.1875 5.9375 C1.20167969 6.83339844 1.21585938 7.72929687 1.23046875 8.65234375 C1 11 1 11 -1 13 C-4.29714793 12.67028521 -5.6226839 12.3773161 -8 10 C-8.55800294 2.969163 -8.55800294 2.969163 -6.8125 -0.0625 C-4.23719907 -1.3945522 -2.70282604 -0.85352401 0 0 Z " fill="#15CAEF" transform="translate(207,226)"/>
<path d="M0 0 C0 0.66 0 1.32 0 2 C-0.66 2 -1.32 2 -2 2 C-2.268125 2.598125 -2.53625 3.19625 -2.8125 3.8125 C-4.00987475 6.01819033 -5.04478984 7.43583187 -7 9 C-7.99 9 -8.98 9 -10 9 C-10 9.99 -10 10.98 -10 12 C-10.721875 12.2475 -11.44375 12.495 -12.1875 12.75 C-15.24713266 14.10983674 -17.4673738 15.82917754 -20 18 C-20.66 17.67 -21.32 17.34 -22 17 C-18.91277741 11.61785088 -15.84779378 6.93883244 -11 3 C-8.125 3.125 -8.125 3.125 -6 4 C-6 3.34 -6 2.68 -6 2 C-3 0 -3 0 0 0 Z " fill="#014DD6" transform="translate(306,206)"/>
<path d="M0 0 C1.32 0 2.64 0 4 0 C3.55340986 7.88975919 0.49359021 14.01281958 -3 21 C-3.99 20.67 -4.98 20.34 -6 20 C-7.05729167 14.71354167 -7.05729167 14.71354167 -7 12 C-5.0625 9.6875 -5.0625 9.6875 -3 8 C-3 7.01 -3 6.02 -3 5 C-2.34 5 -1.68 5 -1 5 C-0.67 3.35 -0.34 1.7 0 0 Z " fill="#011C8E" transform="translate(253,264)"/>
<path d="M0 0 C1.9375 0.8125 1.9375 0.8125 3.9375 2.8125 C4.39911313 7.25301317 4.26147558 11.725794 4.25 16.1875 C4.26611328 17.43273437 4.28222656 18.67796875 4.29882812 19.9609375 C4.29947266 21.1571875 4.30011719 22.3534375 4.30078125 23.5859375 C4.30376221 24.68341309 4.30674316 25.78088867 4.30981445 26.91162109 C3.89982215 30.10606603 3.08723118 31.46843681 0.9375 33.8125 C-1.5 33.4375 -1.5 33.4375 -4.0625 32.8125 C-6.34856619 28.24036761 -5.29266856 21.89483247 -5.3125 16.875 C-5.3434375 14.92303711 -5.3434375 14.92303711 -5.375 12.93164062 C-5.38015625 11.68705078 -5.3853125 10.44246094 -5.390625 9.16015625 C-5.3999707 8.01554932 -5.40931641 6.87094238 -5.41894531 5.69165039 C-5.0625 2.8125 -5.0625 2.8125 -3.67089844 0.90405273 C-2.0625 -0.1875 -2.0625 -0.1875 0 0 Z M-4.0625 2.8125 C-4.09148097 6.91665189 -4.1092922 11.02077753 -4.125 15.125 C-4.13337891 16.29224609 -4.14175781 17.45949219 -4.15039062 18.66210938 C-4.15361328 19.78037109 -4.15683594 20.89863281 -4.16015625 22.05078125 C-4.16539307 23.08243408 -4.17062988 24.11408691 -4.17602539 25.17700195 C-4.17885 27.92196274 -4.17885 27.92196274 -3.0625 30.8125 C-1.7425 30.8125 -0.4225 30.8125 0.9375 30.8125 C4.94698685 22.52411414 3.38729376 11.6924868 1.9375 2.8125 C-1.11163228 1.80138907 -1.11163228 1.80138907 -4.0625 2.8125 Z " fill="#115D8D" transform="translate(164.0625,214.1875)"/>
<path d="M0 0 C0.6875 1.6875 0.6875 1.6875 1 4 C-0.3125 6.5 -0.3125 6.5 -2 9 C-3.56096516 11.60160861 -4.03191101 13.24161194 -4.4375 16.3125 C-5 20 -5 20 -6.5 23.3125 C-8.35889794 27.88229077 -8.71480469 32.11234252 -9 37 C-9.66 37 -10.32 37 -11 37 C-11.12375 38.299375 -11.2475 39.59875 -11.375 40.9375 C-11.5859375 43.15234375 -11.5859375 43.15234375 -12 45 C-12.99 45.495 -12.99 45.495 -14 46 C-13.38355456 39.39331295 -12.28993612 33.07694354 -10.75 26.625 C-10.53037598 25.70396484 -10.31075195 24.78292969 -10.08447266 23.83398438 C-7.91972453 15.11336202 -4.66637037 7.66039991 0 0 Z " fill="#0840B8" transform="translate(280,188)"/>
<path d="M0 0 C0 0.33 0 0.66 0 1 C-1.65 1.33 -3.3 1.66 -5 2 C-5 3.32 -5 4.64 -5 6 C-6.25103516 5.96519531 -6.25103516 5.96519531 -7.52734375 5.9296875 C-14.38737134 5.8196756 -20.37598457 6.20365683 -27 8 C-26 5 -26 5 -24.14453125 3.8671875 C-15.89866536 0.35889615 -8.90716411 -0.14264142 0 0 Z " fill="#072492" transform="translate(192,152)"/>
<path d="M0 0 C0 0.99 0 1.98 0 3 C-1.64453125 4.2109375 -1.64453125 4.2109375 -3.8125 5.375 C-7.46564732 7.51186726 -8.9466949 9.26671801 -11 13 C-16.02739726 18 -16.02739726 18 -19 18 C-19.33 18.66 -19.66 19.32 -20 20 C-19.06896552 10.68965517 -19.06896552 10.68965517 -17 8 C-14.9375 7 -14.9375 7 -12 6 C-10.45239698 5.34723247 -8.91110519 4.67938311 -7.375 4 C-6.24191406 3.505 -6.24191406 3.505 -5.0859375 3 C-2.7789158 1.95408517 -2.7789158 1.95408517 0 0 Z " fill="#00A2F8" transform="translate(304,185)"/>
<path d="M0 0 C3.37503669 1.1858237 5.64722731 2.27573689 8 5 C7.34 7.31 6.68 9.62 6 12 C4.35 12 2.7 12 1 12 C0.67 10.68 0.34 9.36 0 8 C-0.62648437 7.89042969 -1.25296875 7.78085938 -1.8984375 7.66796875 C-3.12433594 7.43013672 -3.12433594 7.43013672 -4.375 7.1875 C-5.18710938 7.03667969 -5.99921875 6.88585937 -6.8359375 6.73046875 C-9 6 -9 6 -11 3 C-7.87709365 3.48578543 -5.00419641 3.9986012 -2 5 C-0.58614089 2.61837991 -0.58614089 2.61837991 0 0 Z " fill="#0131D0" transform="translate(194,157)"/>
<path d="M0 0 C1.66611905 -0.042721 3.33382885 -0.04063832 5 0 C6 1 6 1 6.09765625 3.72265625 C6.08605469 4.82480469 6.07445312 5.92695313 6.0625 7.0625 C6.05347656 8.16722656 6.04445312 9.27195313 6.03515625 10.41015625 C6.02355469 11.26480469 6.01195312 12.11945313 6 13 C3.625 13.625 3.625 13.625 1 14 C-1 12 -1 12 -1.23046875 9.6875 C-1.21628906 8.800625 -1.20210937 7.91375 -1.1875 7 C-1.18105469 6.113125 -1.17460937 5.22625 -1.16796875 4.3125 C-1 2 -1 2 0 0 Z " fill="#1360A7" transform="translate(147,225)"/>
<path d="M0 0 C3.08642187 0.6063831 5.15350879 1.58510295 7.6875 3.4375 C8.28949219 3.86933594 8.89148438 4.30117187 9.51171875 4.74609375 C11 6 11 6 12 8 C12.63421875 8.12632812 13.2684375 8.25265625 13.921875 8.3828125 C16 9 16 9 17.265625 10.7421875 C17.75289062 11.79792969 17.75289062 11.79792969 18.25 12.875 C18.58515625 13.57367188 18.9203125 14.27234375 19.265625 14.9921875 C20 17 20 17 20 20 C20.64453125 20.22429687 21.2890625 20.44859375 21.953125 20.6796875 C24 22 24 22 24.609375 24.3828125 C24.65578125 25.28773438 24.7021875 26.19265625 24.75 27.125 C24.80671875 28.03507812 24.8634375 28.94515625 24.921875 29.8828125 C24.94765625 30.58148438 24.9734375 31.28015625 25 32 C23.1967416 29.29511239 22.19624944 26.99062361 21 24 C19.98372238 22.04906292 18.94133262 20.11153494 17.875 18.1875 C17.33617187 17.21167969 16.79734375 16.23585937 16.2421875 15.23046875 C15.83226562 14.49441406 15.42234375 13.75835937 15 13 C14.01 13 13.02 13 12 13 C10.3515625 11.35546875 10.3515625 11.35546875 8.625 9.1875 C5.98470814 6.00905948 3.65400705 3.99309475 0 2 C0 1.34 0 0.68 0 0 Z " fill="#0B75F2" transform="translate(181,161)"/>
<path d="M0 0 C9.18771859 1.99067236 14.64745167 7.41026236 21 14 C21.33 14.66 21.66 15.32 22 16 C20.68 16.33 19.36 16.66 18 17 C17.34 16.01 16.68 15.02 16 14 C15.13375 13.484375 14.2675 12.96875 13.375 12.4375 C12.59125 11.963125 11.8075 11.48875 11 11 C11 10.34 11 9.68 11 9 C10.01 9 9.02 9 8 9 C7.67 8.34 7.34 7.68 7 7 C6.38125 6.731875 5.7625 6.46375 5.125 6.1875 C2.35873868 4.64164808 1.45344564 2.76154672 0 0 Z " fill="#2668D4" transform="translate(202,155)"/>
<path d="M0 0 C0.66 0.66 1.32 1.32 2 2 C-3.75 5 -3.75 5 -6 5 C-6 5.66 -6 6.32 -6 7 C-6.70125 6.87625 -7.4025 6.7525 -8.125 6.625 C-11.45969225 7.05995986 -11.7922884 7.58875952 -13.9375 10 C-16.31667054 12.63253676 -16.6324053 12.95915614 -20.375 13.375 C-21.24125 13.25125 -22.1075 13.1275 -23 13 C-23.33 13.99 -23.66 14.98 -24 16 C-24.66 16 -25.32 16 -26 16 C-25.25 13.0625 -25.25 13.0625 -24 10 C-21.9375 9.25 -21.9375 9.25 -20 9 C-19.67 8.34 -19.34 7.68 -19 7 C-19 7.66 -19 8.32 -19 9 C-18.01 9 -17.02 9 -16 9 C-16 8.34 -16 7.68 -16 7 C-12.96222523 4.97481682 -10.45225466 4.12862172 -7 3 C-4.64686938 2.04079214 -2.32631866 1.02358021 0 0 Z " fill="#0040C2" transform="translate(306,203)"/>
<path d="M0 0 C0.33 0 0.66 0 1 0 C1.05425226 2.39614126 1.09379027 4.79103853 1.125 7.1875 C1.14175781 7.86103516 1.15851563 8.53457031 1.17578125 9.22851562 C1.21538674 13.28807807 0.80020002 16.34998815 -1 20 C-2.32 20 -3.64 20 -5 20 C-6.1577506 16.52674819 -6.06866652 13.63932552 -6 10 C-4.35 9.67 -2.7 9.34 -1 9 C-0.67 6.03 -0.34 3.06 0 0 Z " fill="#0F99EA" transform="translate(166,225)"/>
<path d="M0 0 C0.33 0.66 0.66 1.32 1 2 C0.67 2.99 0.34 3.98 0 5 C-0.66 5 -1.32 5 -2 5 C-3.13616521 7.6781037 -4.05672318 10.23161963 -4.75 13.0625 C-6.30763018 18.63782708 -8.81945147 24.17591443 -12 29 C-14.1953125 29.8515625 -14.1953125 29.8515625 -16 30 C-15.1875 28.0625 -15.1875 28.0625 -14 26 C-13.01 25.67 -12.02 25.34 -11 25 C-9.9977668 22.41330492 -9.9977668 22.41330492 -9.375 19.3125 C-9.13523437 18.27738281 -8.89546875 17.24226563 -8.6484375 16.17578125 C-7.95604385 13.01848892 -7.95604385 13.01848892 -7.63671875 9.84765625 C-6.89712718 6.53991234 -5.91589668 5.37808789 -3.4375 3.125 C-2.79683594 2.52945313 -2.15617187 1.93390625 -1.49609375 1.3203125 C-1.00238281 0.88460937 -0.50867188 0.44890625 0 0 Z " fill="#00AAFB" transform="translate(288,248)"/>
<path d="M0 0 C0 0.99 0 1.98 0 3 C-5.24175152 5.34205919 -10.53262809 7.25192871 -16 9 C-16 9.66 -16 10.32 -16 11 C-18.64 11.33 -21.28 11.66 -24 12 C-23.02629214 8.39728091 -22.3100846 7.20222909 -19.125 5.125 C-16 4 -16 4 -14.125 4.58203125 C-11.06681768 5.18354873 -9.56276883 4.04277865 -6.875 2.5625 C-2.16893733 0 -2.16893733 0 0 0 Z " fill="#003AB2" transform="translate(306,201)"/>
<path d="M0 0 C0.99 0 1.98 0 3 0 C1.36231563 9.00726401 -1.86979697 17.42639358 -5 26 C-6.05776716 22.29930754 -5.8079573 19.68272086 -5.125 15.875 C-4.85042969 14.29332031 -4.85042969 14.29332031 -4.5703125 12.6796875 C-4 10 -4 10 -3 8 C-2.34 8 -1.68 8 -1 8 C-1.020625 6.865625 -1.04125 5.73125 -1.0625 4.5625 C-1 1 -1 1 0 0 Z " fill="#11A1CC" transform="translate(293,237)"/>
<path d="M0 0 C0.33 0.66 0.66 1.32 1 2 C-0.3125 4.625 -0.3125 4.625 -2 7 C-2.66 7 -3.32 7 -4 7 C-4 7.66 -4 8.32 -4 9 C-6.1875 10.7265625 -6.1875 10.7265625 -9 12.625 C-9.928125 13.25664062 -10.85625 13.88828125 -11.8125 14.5390625 C-12.534375 15.02117187 -13.25625 15.50328125 -14 16 C-14.66 15.34 -15.32 14.68 -16 14 C-16 13.01 -16 12.02 -16 11 C-15.01 11 -14.02 11 -13 11 C-12.67 10.34 -12.34 9.68 -12 9 C-9.4375 8.375 -9.4375 8.375 -7 8 C-7.33 7.01 -7.66 6.02 -8 5 C-6.35 4.34 -4.7 3.68 -3 3 C-3 2.34 -3 1.68 -3 1 C-2.01 0.67 -1.02 0.34 0 0 Z " fill="#0FC1C8" transform="translate(346,165)"/>
<path d="M0 0 C0.33 0.66 0.66 1.32 1 2 C1.99 2.33 2.98 2.66 4 3 C4.73046875 5.06640625 4.73046875 5.06640625 5.1875 7.5625 C5.34605469 8.38878906 5.50460938 9.21507812 5.66796875 10.06640625 C5.77753906 10.70449219 5.88710937 11.34257812 6 12 C6.66 12 7.32 12 8 12 C8.2475 13.27875 8.495 14.5575 8.75 15.875 C9.75070953 20.48410738 11.3867118 24.62935985 13.29296875 28.93359375 C13.52628906 29.61550781 13.75960937 30.29742187 14 31 C13.67 31.66 13.34 32.32 13 33 C8.77736037 27.23013364 6.97012929 22.06601636 6 15 C5.34 15 4.68 15 4 15 C3.52029877 13.25014646 3.04126076 11.50011109 2.5625 9.75 C2.29566406 8.77546875 2.02882812 7.8009375 1.75390625 6.796875 C1.14455416 4.53627347 0.55761745 2.27377991 0 0 Z " fill="#015AEE" transform="translate(229,248)"/>
<path d="M0 0 C2.38227313 1.82766986 2.95881499 2.7165502 3.3984375 5.7421875 C3.39070313 6.77601563 3.38296875 7.80984375 3.375 8.875 C3.38273437 9.90367187 3.39046875 10.93234375 3.3984375 11.9921875 C2.95370896 15.34945197 1.97871818 17.27800697 0 20 C-0.33 20 -0.66 20 -1 20 C-1.33 17.69 -1.66 15.38 -2 13 C-2.33 13 -2.66 13 -3 13 C-3.46192125 8.07284004 -1.8275283 4.49267375 0 0 Z " fill="#01AFF7" transform="translate(262,247)"/>
<path d="M0 0 C0.66 0 1.32 0 2 0 C1.51226766 6.70130877 0.12290788 12.12267485 -2.4375 18.3125 C-2.75009766 19.09689453 -3.06269531 19.88128906 -3.38476562 20.68945312 C-4.802656 24.21769196 -6.2961952 27.59239039 -8 31 C-7.505 26.545 -7.505 26.545 -7 22 C-6.34 22 -5.68 22 -5 22 C-4.94392578 20.93072266 -4.94392578 20.93072266 -4.88671875 19.83984375 C-4.47569481 13.85178905 -3.6337916 9.37732451 -1 4 C-0.62691369 2.67723944 -0.26953585 1.34767923 0 0 Z " fill="#1175C0" transform="translate(304,208)"/>
<path d="M0 0 C0.33 0 0.66 0 1 0 C0.45339344 6.08878192 -0.92858526 11.28645567 -3.0625 17 C-3.34416016 17.77472656 -3.62582031 18.54945313 -3.91601562 19.34765625 C-4.60320298 21.23450967 -5.30054013 23.11766151 -6 25 C-6.66 25 -7.32 25 -8 25 C-8.66 27.31 -9.32 29.62 -10 32 C-11.98 32.495 -11.98 32.495 -14 33 C-14 32.34 -14 31.68 -14 31 C-13.34 31 -12.68 31 -12 31 C-11.6596875 29.8553125 -11.6596875 29.8553125 -11.3125 28.6875 C-10.2377825 25.66805561 -9.04651911 22.89325766 -7.6875 20 C-4.66761659 13.48388253 -2.32874179 6.78803458 0 0 Z " fill="#1AD4F7" transform="translate(260,258)"/>
<path d="M0 0 C1.32 0.33 2.64 0.66 4 1 C1.85068623 7.87780406 -3.03487314 14.02324876 -9 18 C-9.66 18 -10.32 18 -11 18 C-11 18.66 -11 19.32 -11 20 C-11.66 19.67 -12.32 19.34 -13 19 C-13 18.01 -13 17.02 -13 16 C-12.01 16 -11.02 16 -10 16 C-10 15.01 -10 14.02 -10 13 C-9.38125 12.731875 -8.7625 12.46375 -8.125 12.1875 C-5.7004767 11.04443152 -5.7004767 11.04443152 -4 8 C-3.34 8 -2.68 8 -2 8 C-2 7.34 -2 6.68 -2 6 C-1.34 6 -0.68 6 0 6 C0 4.02 0 2.04 0 0 Z " fill="#12BECA" transform="translate(276,279)"/>
<path d="M0 0 C0.99 0.33 1.98 0.66 3 1 C4.09765625 3.87109375 4.09765625 3.87109375 5.0625 7.4375 C6.20375546 12.19092292 6.20375546 12.19092292 9 16 C9.125 19.125 9.125 19.125 9 22 C5.43384783 18.88342685 3.90324851 15.9762653 2.25 11.5625 C1.82203125 10.45003906 1.3940625 9.33757812 0.953125 8.19140625 C0.07177039 5.24031314 -0.20514095 3.04862251 0 0 Z " fill="#62B4D7" transform="translate(213,214)"/>
<path d="M0 0 C0.33 0.99 0.66 1.98 1 3 C-3.4574445 7.4574445 -10.86046207 9.35373285 -17 10 C-12.28224077 4.69252087 -6.96415903 1.55103765 0 0 Z " fill="#05E3FC" transform="translate(320,181)"/>
<path d="M0 0 C0.33 0.99 0.66 1.98 1 3 C-0.32 3.33 -1.64 3.66 -3 4 C-2.01 2.68 -1.02 1.36 0 0 Z M-3 4 C-3 5.32 -3 6.64 -3 8 C-3.639375 8.28875 -4.27875 8.5775 -4.9375 8.875 C-7.15206079 9.82823451 -7.15206079 9.82823451 -8 12 C-9.97888961 12.72693904 -11.97954558 13.39816251 -14 14 C-14 10 -14 10 -11.6875 7.3125 C-8.59939518 4.65529352 -7.05251627 4 -3 4 Z " fill="#01CBFC" transform="translate(268,286)"/>
<path d="M0 0 C2.1236745 3.42701264 2.1236745 3.42701264 1.57421875 5.97265625 C1.28160156 6.66230469 0.98898437 7.35195312 0.6875 8.0625 C-1.05516585 12.6436565 -1.42913914 16.8382471 -1.59375 21.71484375 C-1.79484375 22.84599609 -1.79484375 22.84599609 -2 24 C-2.99 24.66 -3.98 25.32 -5 26 C-4.7676674 16.63699634 -4.39355423 8.50101655 0 0 Z " fill="#0079F6" transform="translate(273,226)"/>
<path d="M0 0 C6.05839378 5.38523892 9.44159566 12.05213789 11 20 C10.34 20.99 9.68 21.98 9 23 C8.76925781 22.39414063 8.53851563 21.78828125 8.30078125 21.1640625 C6.14830533 15.63398603 3.74436645 10.36668764 0.953125 5.12890625 C0 3 0 3 0 0 Z " fill="#4AA8D2" transform="translate(194,172)"/>
<path d="M0 0 C0.66 0 1.32 0 2 0 C-0.15317287 8.35010941 -0.15317287 8.35010941 -3.6875 11.0625 C-4.450625 11.371875 -5.21375 11.68125 -6 12 C-6.33 11.34 -6.66 10.68 -7 10 C-8.65 10.33 -10.3 10.66 -12 11 C-9.64722731 8.27573689 -7.37503669 7.1858237 -4 6 C-4 5.34 -4 4.68 -4 4 C-3.34 4 -2.68 4 -2 4 C-2 3.34 -2 2.68 -2 2 C-1.34 2 -0.68 2 0 2 C0 1.34 0 0.68 0 0 Z " fill="#0DC7DA" transform="translate(345,147)"/>
<path d="M0 0 C0.66 0 1.32 0 2 0 C3.12067256 7.11778518 2.7958955 13.02420757 1 20 C0.67 20 0.34 20 0 20 C0 16.7 0 13.4 0 10 C-1.32 10.33 -2.64 10.66 -4 11 C-3.71125 10.29875 -3.4225 9.5975 -3.125 8.875 C-1.97866412 5.94547497 -0.97374346 2.99078347 0 0 Z " fill="#1CA5B2" transform="translate(351,135)"/>
<path d="M0 0 C0.33 0.66 0.66 1.32 1 2 C3.32156597 2.40729228 5.6568787 2.74438677 8 3 C5.99226044 5.00773956 4.63126383 5.99392854 2 7 C-0.25 6.625 -0.25 6.625 -2 6 C-2 5.34 -2 4.68 -2 4 C-3.093125 4.515625 -4.18625 5.03125 -5.3125 5.5625 C-9 7 -9 7 -12 6 C-8.0949151 2.44992282 -5.02265357 1.18180084 0 0 Z " fill="#00D5F6" transform="translate(322,178)"/>
<path d="M0 0 C0.33 0 0.66 0 1 0 C1.02895225 3.29164829 1.0467823 6.58326399 1.0625 9.875 C1.07087891 10.81214844 1.07925781 11.74929687 1.08789062 12.71484375 C1.09111328 13.61074219 1.09433594 14.50664062 1.09765625 15.4296875 C1.10289307 16.25710449 1.10812988 17.08452148 1.11352539 17.93701172 C1 20 1 20 0 22 C-1.99954746 22.04254356 -4.00041636 22.04080783 -6 22 C-7 21 -7 21 -7.09765625 18.49609375 C-7.08605469 17.48675781 -7.07445312 16.47742188 -7.0625 15.4375 C-7.05347656 14.42558594 -7.04445312 13.41367188 -7.03515625 12.37109375 C-7.02355469 11.58863281 -7.01195312 10.80617187 -7 10 C-6.67 10 -6.34 10 -6 10 C-6 12.97 -6 15.94 -6 19 C-4.35 19 -2.7 19 -1 19 C-0.67 12.73 -0.34 6.46 0 0 Z " fill="#1A60BB" transform="translate(180,240)"/>
<path d="M0 0 C0.66 0 1.32 0 2 0 C2.25394531 0.77085937 2.50789062 1.54171875 2.76953125 2.3359375 C3.11371094 3.33882813 3.45789063 4.34171875 3.8125 5.375 C4.14894531 6.37273437 4.48539063 7.37046875 4.83203125 8.3984375 C5.8506575 11.2845709 5.8506575 11.2845709 9 13 C8.67 14.32 8.34 15.64 8 17 C4.20620942 15.50958227 2.31656242 13.30937488 0 10 C0 9.34 0 8.68 0 8 C0.66 7.67 1.32 7.34 2 7 C1.34 4.69 0.68 2.38 0 0 Z " fill="#053FCC" transform="translate(240,272)"/>
<path d="M0 0 C2.71862707 1.35931353 2.8228626 2.68270647 3.875 5.5 C5.49713489 9.74063727 7.26031271 13.87286648 9.16796875 17.9921875 C9.99083471 19.97788283 10.53484311 21.9044447 11 24 C10.01 23.67 9.02 23.34 8 23 C6.9375 20.6015625 6.9375 20.6015625 6 17.625 C4.83640568 13.66040358 4.83640568 13.66040358 2.41796875 10.44140625 C0.48668136 8.47819675 0.50862527 7.01902866 0.3125 4.3125 C0.24675781 3.50425781 0.18101562 2.69601563 0.11328125 1.86328125 C0.07589844 1.24839844 0.03851563 0.63351563 0 0 Z " fill="#396FF5" transform="translate(231,196)"/>
<path d="M0 0 C0.66 0.99 1.32 1.98 2 3 C4.58380177 3.25030977 4.58380177 3.25030977 7 3 C1.73149092 6.51233939 -2.71157812 7.25153688 -9 7 C-9 6.34 -9 5.68 -9 5 C-7.5390625 3.7109375 -7.5390625 3.7109375 -5.625 2.375 C-4.99851563 1.92898438 -4.37203125 1.48296875 -3.7265625 1.0234375 C-2 0 -2 0 0 0 Z " fill="#0EA7E9" transform="translate(254,297)"/>
<path d="M0 0 C0.66786976 1.33273111 1.33425176 2.66620785 2 4 C2.35320312 4.69738281 2.70640625 5.39476562 3.0703125 6.11328125 C5.43065953 11.0350419 6.46422874 14.54531232 6 20 C5.34 20 4.68 20 4 20 C2.33333538 16.07143339 1.15256901 12.10602709 0 8 C-0.65572791 5.99638693 -1.31875294 3.99508067 -2 2 C-1.34 1.34 -0.68 0.68 0 0 Z " fill="#6481DC" transform="translate(248,226)"/>
<path d="M0 0 C1.9375 0.75 1.9375 0.75 4 2 C4.36162029 3.32594105 4.69728039 4.65938457 5 6 C5.99 6.33 6.98 6.66 8 7 C9.60769874 9.33116317 10.09530596 10.42816426 9.625 13.25 C9.41875 13.8275 9.2125 14.405 9 15 C8.608125 14.236875 8.21625 13.47375 7.8125 12.6875 C6.18733278 9.85028324 6.18733278 9.85028324 3.375 8.5 C1 7 1 7 0.1875 4.4375 C0 2 0 2 0 0 Z " fill="#2162F5" transform="translate(216,168)"/>
<path d="M0 0 C0 0.66 0 1.32 0 2 C-6.79867785 7.64145609 -14.32779064 9.36134206 -23 9 C-18.87980941 6.89673423 -14.64870231 5.1389778 -10.375 3.375 C-9.59898437 3.05015625 -8.82296875 2.7253125 -8.0234375 2.390625 C-7.2809375 2.08382812 -6.5384375 1.77703125 -5.7734375 1.4609375 C-5.09716309 1.18040527 -4.42088867 0.89987305 -3.72412109 0.61083984 C-2 0 -2 0 0 0 Z " fill="#16A2CA" transform="translate(332,158)"/>
<path d="M0 0 C0.66 0 1.32 0 2 0 C2 0.66 2 1.32 2 2 C1.34 2 0.68 2 0 2 C-0.27972656 2.56847656 -0.55945313 3.13695312 -0.84765625 3.72265625 C-3.65727179 9.27521848 -6.74862713 14.69512848 -10 20 C-11.12357734 16.62926798 -10.91572296 16.1261547 -9.625 13 C-9.34914063 12.319375 -9.07328125 11.63875 -8.7890625 10.9375 C-8.39847656 9.9784375 -8.39847656 9.9784375 -8 9 C-7.67 8.01 -7.34 7.02 -7 6 C-6.360625 5.855625 -5.72125 5.71125 -5.0625 5.5625 C-2.80790478 5.20436967 -2.80790478 5.20436967 -1.8125 3 C-1.544375 2.34 -1.27625 1.68 -1 1 C-0.67 0.67 -0.34 0.34 0 0 Z " fill="#008EF8" transform="translate(282,205)"/>
<path d="M0 0 C0.33 0 0.66 0 1 0 C1 2.64 1 5.28 1 8 C1.99 8 2.98 8 4 8 C4 5.36 4 2.72 4 0 C4.33 0 4.66 0 5 0 C5.05406122 1.93719378 5.09282025 3.87481921 5.125 5.8125 C5.14820313 6.89144531 5.17140625 7.97039062 5.1953125 9.08203125 C5 12 5 12 3 15 C2.67 13.68 2.34 12.36 2 11 C1.34 11 0.68 11 0 11 C0 12.98 0 14.96 0 17 C-0.33 17 -0.66 17 -1 17 C-1.02709444 14.91673869 -1.04643873 12.83337559 -1.0625 10.75 C-1.07410156 9.58984375 -1.08570313 8.4296875 -1.09765625 7.234375 C-1.01782092 4.59022872 -0.78643778 2.50173909 0 0 Z " fill="#0BA6F1" transform="translate(175,234)"/>
<path d="M0 0 C1.1673418 3.5020254 0.79056598 4.29616038 -0.43359375 7.66796875 C-0.75263672 8.56064453 -1.07167969 9.45332031 -1.40039062 10.37304688 C-1.74263672 11.30181641 -2.08488281 12.23058594 -2.4375 13.1875 C-2.77587891 14.12787109 -3.11425781 15.06824219 -3.46289062 16.03710938 C-4.30048809 18.36114742 -5.14645283 20.68178235 -6 23 C-6.33 23 -6.66 23 -7 23 C-7.21192221 17.80790596 -6.5912689 13.873261 -5 9 C-4.34 9 -3.68 9 -3 9 C-2.814375 7.88625 -2.814375 7.88625 -2.625 6.75 C-2.04513299 4.19858515 -1.26291261 2.2732427 0 0 Z " fill="#17E3FC" transform="translate(270,230)"/>
<path d="M0 0 C1.27679803 2.55359605 0.69660895 3.2909652 0 6 C-0.17933904 9.49711131 0.22074533 12.5907608 1 16 C0.67 15.01 0.34 14.02 0 13 C-0.99 12.67 -1.98 12.34 -3 12 C-4.35600796 9.49138528 -5.04343526 7.73839942 -4.875 4.875 C-3.73807378 2.43872954 -2.23057287 1.43907927 0 0 Z " fill="#002DD4" transform="translate(242,259)"/>
<path d="M0 0 C0 0.33 0 0.66 0 1 C-1.98 1 -3.96 1 -6 1 C-6 1.66 -6 2.32 -6 3 C-7.32 3.33 -8.64 3.66 -10 4 C-10 3.34 -10 2.68 -10 2 C-11.32 2 -12.64 2 -14 2 C-14 1.34 -14 0.68 -14 0 C-15.65 0 -17.3 0 -19 0 C-19 -0.33 -19 -0.66 -19 -1 C-12.13252891 -2.10765663 -6.73281213 -1.700773 0 0 Z " fill="#0731C8" transform="translate(202,154)"/>
<path d="M0 0 C2.06473354 2.06473354 2.60506767 3.24566146 3.5625 5.9375 C3.81128906 6.62714844 4.06007813 7.31679687 4.31640625 8.02734375 C4.88940471 9.68085359 5.44660846 11.33982537 6 13 C5.01 14.485 5.01 14.485 4 16 C-0.39973696 10.77531236 -0.47617251 6.69286912 0 0 Z " fill="#254FCE" transform="translate(254,242)"/>
<path d="M0 0 C0.99 0 1.98 0 3 0 C3 3.3 3 6.6 3 10 C1.68 10 0.36 10 -1 10 C-1.02689216 8.52093108 -1.04634621 7.04172517 -1.0625 5.5625 C-1.07410156 4.73878906 -1.08570313 3.91507813 -1.09765625 3.06640625 C-1 1 -1 1 0 0 Z " fill="#087EF1" transform="translate(149,227)"/>
<path d="M0 0 C0.33 0.66 0.66 1.32 1 2 C-0.2065625 2.37125 -0.2065625 2.37125 -1.4375 2.75 C-4.171081 3.72238859 -4.171081 3.72238859 -4.8125 6.125 C-4.874375 6.74375 -4.93625 7.3625 -5 8 C-5.99 8 -6.98 8 -8 8 C-8 8.99 -8 9.98 -8 11 C-8.99 11 -9.98 11 -11 11 C-10.875 8.1875 -10.875 8.1875 -10 5 C-7.1875 3.25 -7.1875 3.25 -4 2 C-3.21625 1.608125 -2.4325 1.21625 -1.625 0.8125 C-1.08875 0.544375 -0.5525 0.27625 0 0 Z " fill="#0082F9" transform="translate(296,189)"/>
<path d="M0 0 C0.33 0 0.66 0 1 0 C1 3.3 1 6.6 1 10 C0.34 10 -0.32 10 -1 10 C-1.12375 11.299375 -1.2475 12.59875 -1.375 13.9375 C-1.5859375 16.15234375 -1.5859375 16.15234375 -2 18 C-2.66 18.33 -3.32 18.66 -4 19 C-2.42105263 2.42105263 -2.42105263 2.42105263 0 0 Z " fill="#0C5CB1" transform="translate(270,215)"/>
<path d="M0 0 C2.875 0.3125 2.875 0.3125 6 1 C6.66 1.99 7.32 2.98 8 4 C8.639375 4.309375 9.27875 4.61875 9.9375 4.9375 C12.4120173 6.21225134 13.47273664 7.70910496 15 10 C13.68 10.33 12.36 10.66 11 11 C10.6596875 9.7934375 10.6596875 9.7934375 10.3125 8.5625 C9.879375 7.716875 9.44625 6.87125 9 6 C7.33678518 5.64984951 5.66965451 5.31802943 4 5 C1.6875 2.4375 1.6875 2.4375 0 0 Z " fill="#003DEC" transform="translate(188,164)"/>
<path d="M0 0 C3.0493807 0.60450278 5.11483636 1.55043172 7.625 3.375 C8.21539062 3.79523438 8.80578125 4.21546875 9.4140625 4.6484375 C11 6 11 6 13 9 C12.625 11.1875 12.625 11.1875 12 13 C11.55269531 12.45730469 11.10539063 11.91460937 10.64453125 11.35546875 C7.34091861 7.4460764 4.54219108 4.47755877 0 2 C0 1.34 0 0.68 0 0 Z " fill="#2382CF" transform="translate(181,161)"/>
<path d="M0 0 C0.33 0.66 0.66 1.32 1 2 C0.09239638 4.59732225 -0.87067892 7.09450975 -1.9375 9.625 C-2.22818359 10.33140625 -2.51886719 11.0378125 -2.81835938 11.765625 C-3.53867488 13.51327573 -4.26845694 15.25701915 -5 17 C-6.00685307 13.9794408 -6.02876261 12.52923734 -5.6875 9.4375 C-5.56955078 8.25994141 -5.56955078 8.25994141 -5.44921875 7.05859375 C-5 5 -5 5 -3 3 C-2.34 3.33 -1.68 3.66 -1 4 C-0.67 2.68 -0.34 1.36 0 0 Z " fill="#0EABC0" transform="translate(286,263)"/>
<path d="M0 0 C0 3.96 0 7.92 0 12 C-0.33 12 -0.66 12 -1 12 C-1.33 8.7 -1.66 5.4 -2 2 C-2.99 1.67 -3.98 1.34 -5 1 C-5 6.61 -5 12.22 -5 18 C-5.33 18 -5.66 18 -6 18 C-6 12.06 -6 6.12 -6 0 C-4 -1 -4 -1 0 0 Z " fill="#18C5F0" transform="translate(166,217)"/>
<path d="M0 0 C0.99 0.33 1.98 0.66 3 1 C4.25 8.625 4.25 8.625 2 12 C1.34 12 0.68 12 0 12 C0.33 9.69 0.66 7.38 1 5 C0.01 5.33 -0.98 5.66 -2 6 C-1.34 4.02 -0.68 2.04 0 0 Z " fill="#07F2F9" transform="translate(344,154)"/>
<path d="M0 0 C0.99 0.33 1.98 0.66 3 1 C5.34551123 5.93791838 5.2134222 10.66444505 5 16 C2.70366176 12.55549263 2.45983515 10.06187717 2 6 C1.34 6 0.68 6 0 6 C0 4.02 0 2.04 0 0 Z " fill="#035BF6" transform="translate(224,232)"/>
<path d="M0 0 C0.28875 0.61875 0.5775 1.2375 0.875 1.875 C1.93720042 4.13325765 1.93720042 4.13325765 4 6 C-4.57142857 5.14285714 -4.57142857 5.14285714 -8 3 C-7.67 2.34 -7.34 1.68 -7 1 C-4.61370553 0.38812962 -2.46459429 0 0 0 Z " fill="#0D4896" transform="translate(233,298)"/>
<path d="M0 0 C0.66 0 1.32 0 2 0 C1.00956295 4.83628305 0.04301154 9.47618873 -2 14 C-2.66 14 -3.32 14 -4 14 C-4.33 16.31 -4.66 18.62 -5 21 C-5.33 21 -5.66 21 -6 21 C-4.88767123 11.46575342 -4.88767123 11.46575342 -4 9 C-3.34 8.67 -2.68 8.34 -2 8 C-1.31527335 6.11235097 -1.31527335 6.11235097 -0.875 3.9375 C-0.62363281 2.83728516 -0.62363281 2.83728516 -0.3671875 1.71484375 C-0.24601562 1.14894531 -0.12484375 0.58304688 0 0 Z " fill="#0C9FD2" transform="translate(269,225)"/>
<path d="M0 0 C2.75 -0.3125 2.75 -0.3125 6 0 C8.125 2.375 8.125 2.375 10 5 C12.11660427 6.31165257 12.11660427 6.31165257 14 7 C13.67 7.66 13.34 8.32 13 9 C7.33846154 7.52307692 7.33846154 7.52307692 5.625 4.875 C5.41875 4.25625 5.2125 3.6375 5 3 C3.35 3 1.7 3 0 3 C0 2.01 0 1.02 0 0 Z " fill="#064CEA" transform="translate(196,155)"/>
<path d="M0 0 C0.99 0.495 0.99 0.495 2 1 C2.66666667 3 3.33333333 5 4 7 C4.70783592 8.22095118 5.43766311 9.42938379 6.1875 10.625 C8 14 8 14 7.75 16.4375 C7.5025 16.953125 7.255 17.46875 7 18 C3 11.375 3 11.375 3 8 C2.34 8 1.68 8 1 8 C-0.35439668 5.29120665 -0.06501451 2.99066732 0 0 Z " fill="#3A6CF7" transform="translate(242,221)"/>
<path d="M0 0 C0.33 0.99 0.66 1.98 1 3 C0.21625 3.2475 -0.5675 3.495 -1.375 3.75 C-4.32317108 5.15389099 -4.9024777 6.00675737 -6 9 C-7.65 9 -9.3 9 -11 9 C-10.67 8.34 -10.34 7.68 -10 7 C-9.34 7 -8.68 7 -8 7 C-7.67 6.01 -7.34 5.02 -7 4 C-6.34 4 -5.68 4 -5 4 C-5 3.01 -5 2.02 -5 1 C-3 0 -3 0 0 0 Z " fill="#0992DD" transform="translate(309,167)"/>
<path d="M0 0 C3.62613199 0.56959153 5.25517741 1.92374534 7.75 4.5625 C8.36359375 5.20316406 8.9771875 5.84382812 9.609375 6.50390625 C10.06828125 6.99761719 10.5271875 7.49132812 11 8 C9.02 8.99 9.02 8.99 7 10 C6.01524786 8.90081184 5.03739527 7.7954398 4.0625 6.6875 C3.51722656 6.07261719 2.97195312 5.45773438 2.41015625 4.82421875 C1 3 1 3 0 0 Z " fill="#6190CA" transform="translate(213,162)"/>
<path d="M0 0 C-2.65204777 2.93619574 -4.2166956 4.10981073 -8 5 C-10.02951535 6.28796166 -12.03501678 7.61558 -14 9 C-13.8125 7.1875 -13.8125 7.1875 -13 5 C-8.82142857 2 -8.82142857 2 -6 2 C-6 1.34 -6 0.68 -6 0 C-3 -1 -3 -1 0 0 Z " fill="#0CD6F2" transform="translate(338,158)"/>
<path d="M0 0 C0.33 0.66 0.66 1.32 1 2 C1.66 2 2.32 2 3 2 C2.67 2.99 2.34 3.98 2 5 C0.67696283 5.3721042 -0.65737935 5.70630173 -2 6 C-2.33 6.66 -2.66 7.32 -3 8 C-5.5625 8.625 -5.5625 8.625 -8 9 C-6.4169423 4.7257442 -3.49431596 2.73468206 0 0 Z " fill="#119AD5" transform="translate(245,289)"/>
<path d="M0 0 C2.0625 0.4375 2.0625 0.4375 4 1 C4 3.31 4 5.62 4 8 C2.35 7.67 0.7 7.34 -1 7 C-1.04254356 5.00045254 -1.04080783 2.99958364 -1 1 C-0.67 0.67 -0.34 0.34 0 0 Z " fill="#06E2F7" transform="translate(189,217)"/>
<path d="M0 0 C-2.31 2.97 -4.62 5.94 -7 9 C-7.95904856 5.16380575 -7.91892116 3.67568464 -7 0 C-3.98968256 -0.93423645 -3.13349732 -1.04449911 0 0 Z " fill="#04407E" transform="translate(322,186)"/>
<path d="M0 0 C0.66 0.33 1.32 0.66 2 1 C1.39254603 5.85963179 -0.72758967 9.7405518 -3 14 C-3.85329541 10.90680414 -4 8.20663885 -4 5 C-3.01 4.34 -2.02 3.68 -1 3 C-0.67 2.01 -0.34 1.02 0 0 Z " fill="#003286" transform="translate(253,271)"/>
<path d="M0 0 C0.69921875 1.58203125 0.69921875 1.58203125 1 4 C-0.29296875 7.19921875 -0.29296875 7.19921875 -2.1875 10.6875 C-2.79980469 11.84636719 -3.41210938 13.00523437 -4.04296875 14.19921875 C-6 17 -6 17 -8.23828125 17.89453125 C-9.11033203 17.94673828 -9.11033203 17.94673828 -10 18 C-9.1875 16.0625 -9.1875 16.0625 -8 14 C-7.01 13.67 -6.02 13.34 -5 13 C-4.04643935 11.03696127 -4.04643935 11.03696127 -3.4375 8.6875 C-2.53460417 5.60133064 -1.51484461 2.84114634 0 0 Z " fill="#01C0FD" transform="translate(282,260)"/>
<path d="M0 0 C3.8359375 1.703125 3.8359375 1.703125 5.3125 4.375 C6.02770914 7.10579853 5.9659657 8.39189261 5 11 C2 9 2 9 1.26953125 6.8359375 C1.11871094 6.02382812 0.96789062 5.21171875 0.8125 4.375 C0.65394531 3.55773437 0.49539062 2.74046875 0.33203125 1.8984375 C0.22246094 1.27195313 0.11289063 0.64546875 0 0 Z " fill="#90B0EA" transform="translate(242,218)"/>
<path d="M0 0 C1.32 0.33 2.64 0.66 4 1 C5.25 8.625 5.25 8.625 3 12 C2.49166409 10.75336669 1.99368855 9.50250613 1.5 8.25 C1.2215625 7.55390625 0.943125 6.8578125 0.65625 6.140625 C0 4 0 4 0 0 Z " fill="#57AED8" transform="translate(209,205)"/>
<path d="M0 0 C0.33 0 0.66 0 1 0 C1.05392397 2.77109307 1.09363455 5.54113818 1.125 8.3125 C1.14175781 9.09818359 1.15851563 9.88386719 1.17578125 10.69335938 C1.18222656 11.45068359 1.18867188 12.20800781 1.1953125 12.98828125 C1.20578613 13.68477783 1.21625977 14.38127441 1.22705078 15.09887695 C1 17 1 17 -1 20 C-3.625 20.1875 -3.625 20.1875 -6 20 C-4.68 19.67 -3.36 19.34 -2 19 C-2 17.68 -2 16.36 -2 15 C-1.34 15 -0.68 15 0 15 C0 10.05 0 5.1 0 0 Z " fill="#09476B" transform="translate(194,228)"/>
<path d="M0 0 C3.14459946 2.09639964 3.54088804 2.6440974 4.75 6 C5.14445313 7.051875 5.14445313 7.051875 5.546875 8.125 C6 10 6 10 5 12 C1.34809426 9.56539617 1.08025283 8.15481857 0 4 C0 2.68 0 1.36 0 0 Z " fill="#2257FB" transform="translate(233,206)"/>
<path d="M0 0 C4.64322514 4.49344368 4.76182476 8.86698764 5 15 C4.01 15.495 4.01 15.495 3 16 C2.49595192 13.89679937 1.99689492 11.79240209 1.5 9.6875 C1.08234375 7.92986328 1.08234375 7.92986328 0.65625 6.13671875 C0 3 0 3 0 0 Z " fill="#1E5AF8" transform="translate(222,178)"/>
<path d="M0 0 C0.33 0 0.66 0 1 0 C1.05416188 1.60379341 1.09286638 3.20811406 1.125 4.8125 C1.14820313 5.70582031 1.17140625 6.59914062 1.1953125 7.51953125 C1 10 1 10 -1 13 C-1.66 13 -2.32 13 -3 13 C-3.46192125 8.07284004 -1.8275283 4.49267375 0 0 Z " fill="#16B1E1" transform="translate(262,247)"/>
<path d="M0 0 C1.485 0.99 1.485 0.99 3 2 C3 2.66 3 3.32 3 4 C3.66 4 4.32 4 5 4 C5 5.32 5 6.64 5 8 C3.35 8 1.7 8 0 8 C0 5.36 0 2.72 0 0 Z " fill="#0567F1" transform="translate(174,251)"/>
<path d="M0 0 C0 3 0 3 -1 6 C-1.61875 6.12375 -2.2375 6.2475 -2.875 6.375 C-5.28796315 6.8410703 -5.28796315 6.8410703 -6.75 9.5625 C-7.1625 10.366875 -7.575 11.17125 -8 12 C-8.66 11.34 -9.32 10.68 -10 10 C-9.67 9.34 -9.34 8.68 -9 8 C-8.34 8 -7.68 8 -7 8 C-7 7.01 -7 6.02 -7 5 C-4.625 3.4375 -4.625 3.4375 -2 2 C-1.34 1.34 -0.68 0.68 0 0 Z " fill="#0065E8" transform="translate(303,210)"/>
<path d="M0 0 C0 0.33 0 0.66 0 1 C-0.95712891 1.09087891 -0.95712891 1.09087891 -1.93359375 1.18359375 C-2.75988281 1.26738281 -3.58617187 1.35117188 -4.4375 1.4375 C-5.67306641 1.55931641 -5.67306641 1.55931641 -6.93359375 1.68359375 C-8.98662025 1.78930815 -8.98662025 1.78930815 -10 3 C-11.68608966 3.07205511 -13.37500659 3.08386068 -15.0625 3.0625 C-15.98160156 3.05347656 -16.90070313 3.04445312 -17.84765625 3.03515625 C-18.55792969 3.02355469 -19.26820313 3.01195312 -20 3 C-14.00424316 -0.99717123 -6.96065698 -0.1114696 0 0 Z " fill="#072079" transform="translate(192,152)"/>
<path d="M0 0 C1.63729107 2.4559366 2.58025878 4.28469444 3.5625 7 C3.81128906 7.680625 4.06007812 8.36125 4.31640625 9.0625 C4.89496821 10.7023099 5.45011724 12.35035173 6 14 C3 13 3 13 1.796875 10.8203125 C1.45140625 9.93085938 1.1059375 9.04140625 0.75 8.125 C0.39421875 7.24070312 0.0384375 6.35640625 -0.328125 5.4453125 C-1 3 -1 3 0 0 Z " fill="#1D8DD7" transform="translate(235,266)"/>
<path d="M0 0 C0.66 0 1.32 0 2 0 C1.28571429 8.57142857 1.28571429 8.57142857 -2 12 C-2 3.625 -2 3.625 0 0 Z " fill="#0B44A5" transform="translate(308,199)"/>
<path d="M0 0 C-2.24845077 2.24845077 -3.98898917 2.92379464 -6.9375 4.0625 C-8.25041016 4.57490234 -8.25041016 4.57490234 -9.58984375 5.09765625 C-11.38010907 5.76791766 -13.18647574 6.39549191 -15 7 C-15 6.34 -15 5.68 -15 5 C-11.74391711 1.74391711 -4.41201116 -2.20600558 0 0 Z " fill="#17DFF8" transform="translate(321,184)"/>
<path d="M0 0 C0.99 0 1.98 0 3 0 C2.34 2.97 1.68 5.94 1 9 C0.34 9 -0.32 9 -1 9 C-1.09765625 2.84765625 -1.09765625 2.84765625 -1 1 C-0.67 0.67 -0.34 0.34 0 0 Z " fill="#12B0E1" transform="translate(293,237)"/>
<path d="M0 0 C0.66 0.33 1.32 0.66 2 1 C2 1.99 2 2.98 2 4 C2.66 4 3.32 4 4 4 C4.33 6.31 4.66 8.62 5 11 C3 8 3 8 3 6 C2.01 6.33 1.02 6.66 0 7 C-0.66 5.02 -1.32 3.04 -2 1 C-1.34 0.67 -0.68 0.34 0 0 Z " fill="#3C9CDB" transform="translate(222,234)"/>
<path d="M0 0 C3.625 0.375 3.625 0.375 7 1 C4.94134379 2.0293281 2.88288407 3.05688488 0.8125 4.0625 C-0.96886748 4.8677996 -0.96886748 4.8677996 -2 6 C-3.66617115 6.04063832 -5.33388095 6.042721 -7 6 C-6.21625 5.38125 -5.4325 4.7625 -4.625 4.125 C-2.03162353 2.10141339 -2.03162353 2.10141339 0 0 Z " fill="#012E95" transform="translate(302,196)"/>
<path d="M0 0 C0.33 1.32 0.66 2.64 1 4 C-1.97 4 -4.94 4 -8 4 C-7.67 3.01 -7.34 2.02 -7 1 C-4.53721199 -0.231394 -2.7204945 -0.07159196 0 0 Z " fill="#0BEDF9" transform="translate(330,177)"/>
<path d="M0 0 C0.33 0.66 0.66 1.32 1 2 C1.99 2.33 2.98 2.66 4 3 C4.98248524 7.0527516 5.08159574 10.83861737 5 15 C3.25050228 12.37575342 2.34610019 10.44272784 1.375 7.5 C0.98441406 6.33984375 0.98441406 6.33984375 0.5859375 5.15625 C0 3 0 3 0 0 Z " fill="#0468F3" transform="translate(229,248)"/>
<path d="M0 0 C0.33 0 0.66 0 1 0 C1.05395478 1.62463842 1.09277195 3.24978541 1.125 4.875 C1.14820313 5.77992188 1.17140625 6.68484375 1.1953125 7.6171875 C1 10 1 10 -1 12 C-3.625 11.625 -3.625 11.625 -6 11 C-5.01 10.01 -4.02 9.02 -3 8 C-2.01 8.33 -1.02 8.66 0 9 C0 6.03 0 3.06 0 0 Z " fill="#0D8BB5" transform="translate(207,227)"/>
<path d="M0 0 C0.61875 0.78375 1.2375 1.5675 1.875 2.375 C3.89858661 4.96837647 3.89858661 4.96837647 6 7 C6.125 10.125 6.125 10.125 6 13 C3.20294175 11.60147088 3.09085007 9.86348142 2 7 C1.34 6.01 0.68 5.02 0 4 C0 2.68 0 1.36 0 0 Z " fill="#1885F6" transform="translate(218,222)"/>
<path d="M0 0 C1.32 0.33 2.64 0.66 4 1 C4 2.65 4 4.3 4 6 C2.02 6.99 2.02 6.99 0 8 C0 5.36 0 2.72 0 0 Z " fill="#02C8FB" transform="translate(161,218)"/>
<path d="M0 0 C0.66 0.33 1.32 0.66 2 1 C1.82374165 3.37948772 1.30280227 4.70225849 -0.40234375 6.37890625 C-1.90649092 7.62115486 -3.45129851 8.81376056 -5 10 C-5.36871508 5.45251397 -5.36871508 5.45251397 -3.625 3.3125 C-3.08875 2.879375 -2.5525 2.44625 -2 2 C-1.34 1.34 -0.68 0.68 0 0 Z " fill="#0274FC" transform="translate(283,200)"/>
<path d="M0 0 C0 1.32 0 2.64 0 4 C-2.875 4.1875 -2.875 4.1875 -6 4 C-6.66 3.01 -7.32 2.02 -8 1 C-5.07175348 0.02391783 -3.04386724 -0.08226668 0 0 Z " fill="#00229E" transform="translate(187,154)"/>
<path d="M0 0 C0 3 0 3 -2.375 5.5 C-3.24125 6.325 -4.1075 7.15 -5 8 C-5.99 9.485 -5.99 9.485 -7 11 C-7.66 11 -8.32 11 -9 11 C-7.79618552 8.50638429 -6.54571278 6.31856917 -5 4 C-4.34 4 -3.68 4 -3 4 C-3 3.34 -3 2.68 -3 2 C-2.01 1.34 -1.02 0.68 0 0 Z " fill="#0F50B1" transform="translate(290,177)"/>
<path d="M0 0 C0.66 0.33 1.32 0.66 2 1 C2 4 2 4 1 7 C0.01 6.67 -0.98 6.34 -2 6 C-2.6875 3.9375 -2.6875 3.9375 -3 2 C-2.01 1.34 -1.02 0.68 0 0 Z " fill="#0C6BC6" transform="translate(236,296)"/>
<path d="M0 0 C1.32 0 2.64 0 4 0 C3.67 1.32 3.34 2.64 3 4 C0.36 4.33 -2.28 4.66 -5 5 C-4.67 4.01 -4.34 3.02 -4 2 C-2.68 2 -1.36 2 0 2 C0 1.34 0 0.68 0 0 Z " fill="#12D6ED" transform="translate(260,296)"/>
<path d="M0 0 C2.97 0 5.94 0 9 0 C6.99226044 2.00773956 5.63126383 2.99392854 3 4 C0.75 3.625 0.75 3.625 -1 3 C-0.67 2.01 -0.34 1.02 0 0 Z " fill="#0EBAC9" transform="translate(321,181)"/>
<path d="M0 0 C0.33 0.99 0.66 1.98 1 3 C1.99 3 2.98 3 4 3 C4 4.65 4 6.3 4 8 C2.68 8 1.36 8 0 8 C0 5.36 0 2.72 0 0 Z " fill="#0081F8" transform="translate(161,237)"/>
<path d="M0 0 C0 3 0 3 -2 5.1875 C-2.66 5.785625 -3.32 6.38375 -4 7 C-4.99 6.67 -5.98 6.34 -7 6 C-6.360625 5.731875 -5.72125 5.46375 -5.0625 5.1875 C-2.66868314 4.11332248 -2.66868314 4.11332248 -2 1 C-1.34 0.67 -0.68 0.34 0 0 Z M-8 7 C-7.67 7.99 -7.34 8.98 -7 10 C-7.66 10 -8.32 10 -9 10 C-8.67 9.01 -8.34 8.02 -8 7 Z " fill="#0057DD" transform="translate(303,208)"/>
<path d="M0 0 C0.66 0 1.32 0 2 0 C2 0.66 2 1.32 2 2 C2.99 2 3.98 2 5 2 C3.25 5.875 3.25 5.875 1 7 C0.34 6.67 -0.32 6.34 -1 6 C-0.67 4.02 -0.34 2.04 0 0 Z " fill="#002ABA" transform="translate(190,156)"/>
<path d="M0 0 C4.46839215 -0.21278058 7.82262526 0.40861915 12 2 C10.5 3.125 10.5 3.125 8 4 C5.2226918 3.57598348 2.70360217 2.81108065 0 2 C0 1.34 0 0.68 0 0 Z " fill="#1048AC" transform="translate(171,158)"/>
<path d="M0 0 C0.99 0.33 1.98 0.66 3 1 C0.58443874 4.19199167 -1.68003538 6.74716687 -5 9 C-5 5 -5 5 -2.5 2.25 C-1.675 1.5075 -0.85 0.765 0 0 Z " fill="#00B8FB" transform="translate(259,291)"/>
<path d="M0 0 C0.66 0 1.32 0 2 0 C1.98839844 0.62648438 1.97679687 1.25296875 1.96484375 1.8984375 C1.95582031 2.71570313 1.94679687 3.53296875 1.9375 4.375 C1.92589844 5.18710937 1.91429687 5.99921875 1.90234375 6.8359375 C1.85533666 9.04937142 1.85533666 9.04937142 3 11 C2.34 11.66 1.68 12.32 1 13 C-0.7338979 11.2661021 -0.41184841 8.86293764 -0.625 6.5 C-0.72039062 5.4996875 -0.81578125 4.499375 -0.9140625 3.46875 C-0.95660156 2.24671875 -0.95660156 2.24671875 -1 1 C-0.67 0.67 -0.34 0.34 0 0 Z " fill="#0220A8" transform="translate(245,271)"/>
<path d="M0 0 C2.7972908 2.06756277 3.02692273 3.14440371 3.6875 6.6875 C3.790625 7.780625 3.89375 8.87375 4 10 C3.01 9.67 2.02 9.34 1 9 C-0.4783226 6.04335481 -0.06032783 3.25770263 0 0 Z " fill="#004AFA" transform="translate(229,241)"/>
<path d="M0 0 C2.34914492 2.34914492 2.73140357 3.95679446 3.625 7.125 C3.88539063 8.03507813 4.14578125 8.94515625 4.4140625 9.8828125 C4.70410156 10.93082031 4.70410156 10.93082031 5 12 C4.01 11.67 3.02 11.34 2 11 C0.60955102 7.12137916 0 4.13537997 0 0 Z " fill="#4B79F2" transform="translate(237,208)"/>
<path d="M0 0 C0.66 0 1.32 0 2 0 C1.21302675 3.41021743 0.12880057 6.68885166 -1 10 C-1.66 10 -2.32 10 -3 10 C-2.25 3.375 -2.25 3.375 0 0 Z " fill="#0949C4" transform="translate(273,205)"/>
<path d="M0 0 C0 0.66 0 1.32 0 2 C-3.97193147 5.12940055 -7.04230204 5.29162929 -12 5 C-8.45976076 2.63984051 -4.36489861 0 0 0 Z " fill="#12768F" transform="translate(332,158)"/>
<path d="M0 0 C0.66 0 1.32 0 2 0 C3.49821059 3.37097383 4 5.20442119 4 9 C3.34 9 2.68 9 2 9 C0.50178941 5.62902617 0 3.79557881 0 0 Z " fill="#63BCE2" transform="translate(223,240)"/>
<path d="M0 0 C0.598125 0.226875 1.19625 0.45375 1.8125 0.6875 C0.5 2.1875 0.5 2.1875 -1.1875 3.6875 C-2.1775 3.6875 -3.1675 3.6875 -4.1875 3.6875 C-4.1875 5.9975 -4.1875 8.3075 -4.1875 10.6875 C-4.5175 10.6875 -4.8475 10.6875 -5.1875 10.6875 C-5.55141205 3.28795489 -5.55141205 3.28795489 -3.9375 0.625 C-2.1875 -0.3125 -2.1875 -0.3125 0 0 Z " fill="#116B7C" transform="translate(204.1875,225.3125)"/>
<path d="M0 0 C1.9451 2.91765 2.45276317 4.62537285 3 8 C2.01 8 1.02 8 0 8 C-2 5 -2 5 -2 2 C-1.34 2 -0.68 2 0 2 C0 1.34 0 0.68 0 0 Z " fill="#7A92C2" transform="translate(238,202)"/>
<path d="M0 0 C0.66 0 1.32 0 2 0 C1.49287967 3.71888239 0.88391785 6.73454239 -1 10 C-2.26272884 7.47454232 -2.20497101 5.80127043 -2 3 C-1.34 2.01 -0.68 1.02 0 0 Z " fill="#11BDC3" transform="translate(349,155)"/>
<path d="M0 0 C1.32 0 2.64 0 4 0 C3.67 2.64 3.34 5.28 3 8 C1.49440461 6.03617993 0.10868317 4.21736634 -1 2 C-0.67 1.34 -0.34 0.68 0 0 Z " fill="#003094" transform="translate(253,264)"/>
<path d="M0 0 C1 2 1 2 0.44140625 3.9453125 C0.15136719 4.66460937 -0.13867188 5.38390625 -0.4375 6.125 C-0.72496094 6.84945313 -1.01242187 7.57390625 -1.30859375 8.3203125 C-1.53675781 8.87460937 -1.76492188 9.42890625 -2 10 C-2.66 10 -3.32 10 -4 10 C-2.25 2.25 -2.25 2.25 0 0 Z " fill="#1BDCF7" transform="translate(287,257)"/>
<path d="M0 0 C1.1875 1.5625 1.1875 1.5625 2 4 C0.625 7.75 0.625 7.75 -1 11 C-1.33 11 -1.66 11 -2 11 C-1.85892253 9.54119891 -1.71197585 8.08296449 -1.5625 6.625 C-1.48128906 5.81289062 -1.40007812 5.00078125 -1.31640625 4.1640625 C-1 2 -1 2 0 0 Z " fill="#0068E8" transform="translate(273,226)"/>
<path d="M0 0 C1.65 0.33 3.3 0.66 5 1 C5 1.99 5 2.98 5 4 C2.69 4 0.38 4 -2 4 C-1.34 2.68 -0.68 1.36 0 0 Z " fill="#1D91B2" transform="translate(189,214)"/>
<path d="M0 0 C0.99 0.33 1.98 0.66 3 1 C3.66 4.3 4.32 7.6 5 11 C3 10 3 10 1.9375 7.1875 C1.23473038 4.7980833 0.55983196 2.42593851 0 0 Z " fill="#1C83F2" transform="translate(213,210)"/>
<path d="M0 0 C1.5 1 1.5 1 3 3 C3.27345479 5.71846235 3.13491285 8.25677199 3 11 C2.67 9.68 2.34 8.36 2 7 C1.34 7 0.68 7 0 7 C0 4.69 0 2.38 0 0 Z " fill="#215AFB" transform="translate(228,193)"/>
<path d="M0 0 C0.99 0.33 1.98 0.66 3 1 C4.66621616 1.03874921 6.33394172 1.0450286 8 1 C4.81237635 3.12508244 2.73487777 3.5020163 -1 4 C-0.67 2.68 -0.34 1.36 0 0 Z " fill="#0F9EBD" transform="translate(253,299)"/>
<path d="M0 0 C1.875 0.625 1.875 0.625 4 2 C5.25 5.125 5.25 5.125 6 8 C3 6.25 3 6.25 0 4 C0 2.68 0 1.36 0 0 Z " fill="#0031CC" transform="translate(253,252)"/>
<path d="M0 0 C2 1 2 1 2.625 2.8125 C3 5 3 5 3 9 C2.34 9 1.68 9 1 9 C0.63877119 7.68942607 0.28619689 6.37646376 -0.0625 5.0625 C-0.35833984 3.96615234 -0.35833984 3.96615234 -0.66015625 2.84765625 C-0.77230469 2.23792969 -0.88445312 1.62820312 -1 1 C-0.67 0.67 -0.34 0.34 0 0 Z " fill="#0037EC" transform="translate(235,251)"/>
<path d="M0 0 C0.33 2.31 0.66 4.62 1 7 C-0.32 7 -1.64 7 -3 7 C-3 5.02 -3 3.04 -3 1 C-1 0 -1 0 0 0 Z " fill="#008FFB" transform="translate(178,244)"/>
<path d="M0 0 C0.33 0.66 0.66 1.32 1 2 C0.06833174 4.03273074 -0.9349985 6.03384339 -2 8 C-2.33 8.66 -2.66 9.32 -3 10 C-3.66 10 -4.32 10 -5 10 C-3.84414715 6.08788267 -2.64465038 3.1254959 0 0 Z " fill="#005AC7" transform="translate(281,212)"/>
<path d="M0 0 C0.99 0.33 1.98 0.66 3 1 C3.33 3.31 3.66 5.62 4 8 C2 6.8125 2 6.8125 0 5 C-0.25 2.3125 -0.25 2.3125 0 0 Z " fill="#6DC9ED" transform="translate(213,214)"/>
<path d="M0 0 C1.65 1.65 3.3 3.3 5 5 C4.34 6.32 3.68 7.64 3 9 C0 3.375 0 3.375 0 0 Z " fill="#3697CA" transform="translate(194,172)"/>
<path d="M0 0 C3.3 0.66 6.6 1.32 10 2 C10 2.33 10 2.66 10 3 C6.37 3 2.74 3 -1 3 C-0.67 2.01 -0.34 1.02 0 0 Z " fill="#0E41B3" transform="translate(192,152)"/>
<path d="M0 0 C0.66 0 1.32 0 2 0 C2.33 0.99 2.66 1.98 3 3 C1.02 3.99 1.02 3.99 -1 5 C-1 5.66 -1 6.32 -1 7 C-1.66 6.67 -2.32 6.34 -3 6 C-3 5.01 -3 4.02 -3 3 C-2.01 3 -1.02 3 0 3 C0 2.01 0 1.02 0 0 Z " fill="#11C2D1" transform="translate(266,292)"/>
<path d="M0 0 C1.65 0 3.3 0 5 0 C5.33 0.99 5.66 1.98 6 3 C5.67 3.66 5.34 4.32 5 5 C3.0625 4.1875 3.0625 4.1875 1 3 C0.67 2.01 0.34 1.02 0 0 Z " fill="#0650AE" transform="translate(243,284)"/>
<path d="M0 0 C2.5 1.8125 2.5 1.8125 5 4 C5 4.99 5 5.98 5 7 C3.68 6.67 2.36 6.34 1 6 C0.67 4.02 0.34 2.04 0 0 Z " fill="#97BBF9" transform="translate(233,197)"/>
<path d="M0 0 C2.96175123 0.61277612 4.38058783 1.25372522 7 3 C6.67 3.99 6.34 4.98 6 6 C3.96166576 4.7260411 1.96147874 3.38938077 0 2 C0 1.34 0 0.68 0 0 Z " fill="#1C75C9" transform="translate(181,161)"/>
<path d="M0 0 C0.66 0 1.32 0 2 0 C2 1.65 2 3.3 2 5 C1.01 5.495 1.01 5.495 0 6 C0 5.34 0 4.68 0 4 C-0.99 4.33 -1.98 4.66 -3 5 C-3 4.34 -3 3.68 -3 3 C-2.34 3 -1.68 3 -1 3 C-0.67 2.01 -0.34 1.02 0 0 Z " fill="#08D8FB" transform="translate(204,226)"/>
<path d="M0 0 C0 3 0 3 -2.5 5.6875 C-3.325 6.450625 -4.15 7.21375 -5 8 C-5.33 7.34 -5.66 6.68 -6 6 C-5.34 5.67 -4.68 5.34 -4 5 C-3.67 4.34 -3.34 3.68 -3 3 C-2 1 -2 1 0 0 Z " fill="#0B65CA" transform="translate(294,174)"/>
<path d="M0 0 C2.52259061 1.97420135 2.9929808 2.96745642 3.6875 6.1875 C3.790625 7.115625 3.89375 8.04375 4 9 C0 4.5 0 4.5 0 0 Z " fill="#558AF3" transform="translate(222,174)"/>
<path d="M0 0 C2.97 0.495 2.97 0.495 6 1 C6 2.65 6 4.3 6 6 C3.97945196 4.35830472 1.97956942 2.69088222 0 1 C0 0.67 0 0.34 0 0 Z " fill="#0054E6" transform="translate(188,164)"/>
<path d="M0 0 C0.66 0.33 1.32 0.66 2 1 C1.67 1.99 1.34 2.98 1 4 C-1.31 4.33 -3.62 4.66 -6 5 C-4.06745228 2.9754262 -2.36841312 1.57894208 0 0 Z " fill="#109BAC" transform="translate(339,153)"/>
</svg>
